<svg width="19" height="18" viewBox="0 0 19 18" fill="none" xmlns="http://www.w3.org/2000/svg">
<g clip-path="url(#clip0)">
<path d="M5.75008 17.9986C5.60177 17.9986 5.4568 17.9546 5.33349 17.8721C5.21018 17.7897 5.11408 17.6726 5.05733 17.5356C5.00057 17.3986 4.98572 17.2478 5.01465 17.1023C5.04357 16.9569 5.11498 16.8232 5.21983 16.7183L11.3488 10.5893C11.7706 10.1674 12.0076 9.59522 12.0076 8.9986C12.0076 8.40198 11.7706 7.82978 11.3488 7.40785L5.21983 1.27885C5.08322 1.13739 5.00762 0.947943 5.00933 0.751295C5.01104 0.554648 5.08991 0.366539 5.22897 0.227482C5.36803 0.0884264 5.55614 0.00954967 5.75278 0.00784085C5.94943 0.00613204 6.13888 0.0817278 6.28033 0.218346L12.4093 6.34735C13.1114 7.05106 13.5057 8.00453 13.5057 8.9986C13.5057 9.99266 13.1114 10.9461 12.4093 11.6498L6.28033 17.7788C6.13971 17.9195 5.94898 17.9986 5.75008 17.9986Z" fill="#3B82F6"/>
</g>
<defs>
<clipPath id="clip0">
<rect width="18" height="18" fill="white" transform="translate(0.5)"/>
</clipPath>
</defs>
</svg>
