<svg width="112" height="112" viewBox="0 0 112 112" fill="none" xmlns="http://www.w3.org/2000/svg">
<path d="M0.149521 59.9337C-0.0875553 56.8111 -0.0426322 53.6735 0.283767 50.559C0.788981 45.3518 2.02805 40.2422 3.96418 35.382C6.57264 28.9418 10.3308 23.0297 15.055 17.9344C22.2524 10.0744 31.0784 4.89966 41.3229 2.05981C45.481 0.892343 49.7639 0.227026 54.0803 0.0780573C67.2634 -0.271949 80.155 3.99236 90.529 12.1347C100.903 20.277 108.108 31.7862 110.901 44.675C111.541 47.7001 111.904 50.7776 111.983 53.8688C112.147 60.8072 111.099 67.7211 108.887 74.2993C106.399 81.7899 102.254 88.6228 96.7597 94.2891C92.1084 99.1428 86.7144 103.225 80.7801 106.384C76.8443 108.458 72.6302 109.954 68.2679 110.826C64.5169 111.593 60.6961 111.967 56.8676 111.941C50.6596 111.918 44.5655 111.141 38.6348 109.235C30.7924 106.723 23.6338 102.439 17.7139 96.7145C13.9197 93.0749 10.2597 89.2807 6.55302 85.5448C5.96929 84.9611 5.47019 84.3248 4.94192 83.7032C4.79195 83.5237 4.66272 83.3279 4.55667 83.1194C4.47973 83.0036 4.43706 82.8684 4.43358 82.7293C4.4301 82.5903 4.46595 82.4531 4.53701 82.3336C4.60806 82.214 4.71143 82.117 4.83521 82.0536C4.959 81.9902 5.09817 81.9631 5.23671 81.9753C6.1205 81.9965 6.97361 82.3037 7.66796 82.8509C8.60485 83.5076 9.51547 84.1993 10.4436 84.8677C13.1346 86.7999 15.776 88.8079 18.5312 90.6437C23.0434 93.6558 28.043 95.547 33.3316 96.6941C36.9385 97.463 40.6077 97.9036 44.2941 98.0104C46.403 98.0866 48.4989 97.6509 50.4028 96.7407C51.6812 96.1308 52.5568 95.1413 52.7377 93.682C52.9041 92.4182 52.4459 91.3208 51.7016 90.3285C50.4962 88.7203 48.9902 87.4098 47.4871 86.0906C46.3575 85.0983 45.2076 84.1205 44.1511 83.0523C43.2528 82.1783 42.5513 81.1227 42.0933 79.9561C41.6353 78.7895 41.4313 77.5386 41.4951 76.2869C41.5388 75.4311 41.8087 74.6023 42.2773 73.8848C42.3965 73.6977 42.5431 73.5295 42.7122 73.3858C42.7655 73.326 42.8318 73.279 42.9059 73.2484C42.98 73.2178 43.0601 73.2044 43.1401 73.2092C43.2201 73.214 43.298 73.2368 43.368 73.276C43.4379 73.3151 43.4981 73.3696 43.544 73.4353C43.6475 73.5453 43.7394 73.6656 43.8183 73.7943C45.6125 76.7234 48.0548 79.2017 50.9573 81.0384C52.9391 82.3256 55.0143 83.4726 57.0602 84.6663C60.1599 86.4759 63.1281 88.4605 65.7753 90.9122C67.8346 92.7977 69.6345 94.948 71.1281 97.307C71.814 98.4015 72.7976 98.7196 73.9563 98.1826C78.2664 96.2885 82.2849 93.7904 85.8907 90.7634C91.4361 86.0235 95.5222 80.2183 98.3066 73.4821C101.417 65.9848 102.461 57.7911 101.33 49.7534C100.335 42.4365 97.5853 35.4687 93.3166 29.4432C89.0479 23.4177 83.3862 18.5131 76.8136 15.147C68.0982 10.5708 58.2048 8.73066 48.4269 9.86721C38.7661 11.0142 30.2057 14.7443 22.6465 20.8355C15.9832 26.2087 10.5632 32.6064 6.59388 40.2065C4.00874 45.1897 2.10151 50.4961 0.922934 55.9848C0.657337 57.2019 0.447209 58.4335 0.20788 59.6564C0.199124 59.7586 0.17287 59.8461 0.149521 59.9337Z" fill="#1D4ED8"/>
<path d="M10.0321 82.0047C10.7705 81.4531 11.4914 80.8956 12.224 80.3703C15.0609 78.3272 17.9212 76.3426 20.7377 74.2907C23.7702 72.0813 26.5341 69.5888 28.7552 66.533C30.7587 63.7082 32.3324 60.6021 33.4251 57.3159C34.3745 54.5277 35.1255 51.6759 35.6724 48.7818C35.6929 48.6796 35.725 48.5774 35.7629 48.4198C35.8563 48.5541 35.9263 48.6533 35.9935 48.7555C37.9344 51.6741 40.5407 53.7172 43.9526 54.5928C47.1485 55.4071 50.216 54.9635 53.0004 53.1335C55.8928 51.2276 56.7305 48.0784 55.7732 45.0605C54.2671 40.3148 52.6823 35.5924 51.1267 30.8642C51.0639 30.6644 50.9746 30.4739 50.8611 30.298C50.7628 30.1298 50.614 29.997 50.4358 29.9184C50.2576 29.8398 50.0592 29.8194 49.8687 29.8602C49.6781 29.9038 49.5076 30.01 49.3844 30.1618C49.2611 30.3136 49.1922 30.5023 49.1887 30.6978C49.1659 31.1018 49.2023 31.5069 49.2967 31.9003C50.543 36.6139 51.8125 41.3217 53.0646 46.0324C53.6484 48.2389 52.8487 50.0309 50.8231 51.0963C49.3782 51.8187 47.764 52.1345 46.1533 52.0098C43.7425 51.8989 41.8162 50.7635 40.1263 49.1583C38.194 47.3763 36.9708 44.9559 36.6823 42.3432C36.5942 41.3219 36.5864 40.2953 36.6589 39.2728C36.7246 37.3024 37.0635 35.3507 37.6658 33.4735C38.6202 30.5752 40.3306 28.1615 42.3882 25.955C44.6881 23.4888 47.3996 21.6529 50.6276 20.681C57.4864 18.6146 63.7615 19.8375 69.4762 24.1367C71.3266 25.5318 72.8005 27.2976 74.3007 29.04C74.9852 29.85 75.7349 30.6026 76.5423 31.2903C77.7418 32.2914 79.2187 32.7087 80.7393 32.8576C82.4088 33.0171 84.084 33.1144 85.7652 33.1495C88.5554 33.1962 90.4846 34.8481 90.7823 37.6325C91.0423 40.018 90.7476 42.4312 89.9213 44.684C89.0049 47.2173 87.1516 48.951 84.8195 50.1652C82.6306 51.3064 80.3861 52.3367 78.165 53.4136C76.2475 54.3447 74.3212 55.2553 72.4153 56.2126C70.5094 57.1699 68.9625 58.5475 68.1307 60.5906C67.645 61.8343 67.4775 63.1796 67.6433 64.5045C67.7805 65.8354 67.9089 67.1721 68.0198 68.506C68.1628 70.2572 68.3117 72.0083 68.4109 73.7595C68.5014 75.1546 68.5685 76.5527 68.6006 77.9507C68.6531 80.3878 68.6999 82.8278 68.6999 85.2649C68.6999 87.0686 68.621 88.8752 68.5743 90.7577C68.2008 90.3958 67.8768 90.0777 67.5441 89.7654C64.7188 87.0832 61.5287 84.9 58.1752 82.9445C56.1905 81.7771 54.1796 80.6797 52.2504 79.4422C49.5063 77.729 47.1966 75.4033 45.5024 72.6475C44.9421 71.7194 44.1365 71.1269 42.9778 71.1678C42.5976 71.1839 42.2253 71.2813 41.886 71.4535C41.5466 71.6257 41.2481 71.8686 41.0106 72.166C39.9701 73.3851 39.4088 74.9413 39.4316 76.5439C39.3996 78.0179 39.6709 79.4826 40.2287 80.8473C40.7865 82.212 41.6189 83.4474 42.6743 84.4768C43.9906 85.7961 45.4587 86.9635 46.8158 88.2419C47.8753 89.24 48.8852 90.2849 49.8804 91.3531C50.1765 91.6996 50.4105 92.0945 50.5721 92.5206C50.7321 92.8639 50.7674 93.2521 50.6721 93.6186C50.5767 93.9851 50.3566 94.3069 50.0497 94.5286C49.4163 95.0628 48.6312 95.2641 47.8636 95.5005C46.1387 96.0317 44.3612 96.0493 42.6101 95.8917C41.0544 95.7516 39.4959 95.6261 37.9402 95.4159C36.4517 95.2116 34.9778 94.911 33.5039 94.6396C33.3498 94.5885 33.2042 94.5147 33.0719 94.4207C32.5552 94.1145 32.0201 93.8406 31.4696 93.6005C31.1657 93.5311 30.8476 93.5607 30.5619 93.6852C30.3638 93.7654 30.1438 93.7737 29.9402 93.7085C25.6558 92.4233 21.6127 90.4402 17.9737 87.8391C15.347 85.9536 12.7523 84.0449 10.1459 82.1244C10.1054 82.087 10.0674 82.0471 10.0321 82.0047Z" fill="#1D4ED8"/>
</svg>
