<svg width="20" height="20" viewBox="0 0 20 20" fill="none" xmlns="http://www.w3.org/2000/svg">
<path d="M15.6485 10.5689C15.6396 8.9302 16.3808 7.69336 17.8811 6.78248C17.0416 5.58137 15.7735 4.92054 14.0991 4.79105C12.514 4.66603 10.7815 5.71533 10.1474 5.71533C9.47767 5.71533 7.94166 4.8357 6.73607 4.8357C4.24451 4.87589 1.59668 6.82267 1.59668 10.7832C1.59668 11.9531 1.81101 13.1616 2.23966 14.4089C2.8112 16.0476 4.8741 20.0662 7.0263 19.9992C8.15152 19.9724 8.94631 19.1999 10.4109 19.1999C11.8308 19.1999 12.5675 19.9992 13.8223 19.9992C15.9923 19.9679 17.8587 16.3155 18.4035 14.6723C15.4922 13.3015 15.6485 10.6537 15.6485 10.5689ZM13.1212 3.2372C14.3402 1.7905 14.2286 0.4733 14.1929 0C13.1168 0.0625114 11.871 0.732276 11.161 1.55832C10.3796 2.44241 9.91972 3.53636 10.0179 4.76872C11.1834 4.85803 12.2461 4.2597 13.1212 3.2372Z" fill="black"/>
</svg>
