<svg xmlns="http://www.w3.org/2000/svg" xmlns:xlink="http://www.w3.org/1999/xlink" width="10" height="10" viewBox="0 0 10 10">
  <defs>
    <clipPath id="clip-path">
      <rect id="Rectangle_56" data-name="Rectangle 56" width="10" height="10" transform="translate(10 10) rotate(180)" fill="#fff"/>
    </clipPath>
  </defs>
  <g id="Group_568" data-name="Group 568" clip-path="url(#clip-path)">
    <path id="Path_16532" data-name="Path 16532" d="M3.313,5.3a2.435,2.435,0,0,1,4.1,0L8.5,6.991A1.541,1.541,0,0,1,6.579,9.234l-.02-.009a3.03,3.03,0,0,0-2.412.009,1.533,1.533,0,0,1-.618.131,1.552,1.552,0,0,1-.345-.039,1.541,1.541,0,0,1-.955-2.334Z" fill="#fff"/>
    <path id="Path_16533" data-name="Path 16533" d="M8.205,5.3a1.182,1.182,0,0,1-.69-.732,1.571,1.571,0,0,1,.713-1.852,1.182,1.182,0,0,1,1-.081,1.354,1.354,0,0,1,.663,1.785,1.428,1.428,0,0,1-1.284.955A1.119,1.119,0,0,1,8.205,5.3Z" fill="#fff"/>
    <path id="Path_16534" data-name="Path 16534" d="M6.1,3.972A1.583,1.583,0,0,1,4.632,2.3,1.583,1.583,0,0,1,6.1.625,1.583,1.583,0,0,1,7.57,2.3,1.583,1.583,0,0,1,6.1,3.972Z" fill="#fff"/>
    <path id="Path_16535" data-name="Path 16535" d="M3.565,4.384h0a1.2,1.2,0,0,1-.378.061A1.522,1.522,0,0,1,1.8,3.354a1.641,1.641,0,0,1,.023-1.132A1.242,1.242,0,0,1,3.665,1.61a1.641,1.641,0,0,1,.7.893A1.452,1.452,0,0,1,3.565,4.384Z" fill="#fff"/>
    <path id="Path_16536" data-name="Path 16536" d="M.471,4.188h0a1.354,1.354,0,0,1,1.862.4,1.354,1.354,0,0,1-.163,1.9,1.148,1.148,0,0,1-.69.223A1.485,1.485,0,0,1,.308,6.085,1.354,1.354,0,0,1,.471,4.188Z" fill="#fff"/>
  </g>
</svg>
