<svg width="174" height="124" viewBox="0 0 174 124" fill="none" xmlns="http://www.w3.org/2000/svg">
<path d="M84.8015 89.9609C109.179 71.7472 169.115 87.5888 185.103 113.854C192.313 125.697 188.402 138.937 174.617 149.237C159.634 160.431 144.533 159.323 132.498 168.315C120.371 177.376 115.608 193.326 100.749 204.428C86.9638 214.728 74.4185 213.784 67.2093 201.941C51.221 175.675 60.4244 108.175 84.8015 89.9609ZM127.422 51.8957C123.447 37.7349 128.645 22.793 139.055 18.4702C149.415 14.1363 161.033 22.1423 164.987 36.2692C168.941 50.3961 163.765 65.3719 153.354 69.6947C142.994 74.0286 131.376 66.0226 127.422 51.8957ZM97.1213 64.2669C85.9613 68.6065 72.5681 57.9775 67.2052 40.5093C61.8423 23.0411 66.6085 5.40994 77.7992 1.04745C88.9899 -3.31504 102.373 7.37076 107.685 24.828C112.996 42.2852 108.302 59.9613 97.1213 64.2669ZM4.67465 118.875C12.1628 109.824 26.6351 110.119 37.006 119.452C47.3669 128.841 49.6616 143.764 42.1527 152.781C34.6645 161.831 20.1923 161.537 9.82135 152.204C-0.518846 142.849 -2.86489 127.915 4.67465 118.875ZM58.6829 92.9868C50.8694 102.824 34.3287 101.112 21.6895 89.0808C9.05036 77.0492 5.19524 59.343 13.0189 49.4492C20.8425 39.5555 37.4244 41.3347 50.0329 53.3892C62.6414 65.4438 66.5272 83.127 58.6829 92.9868Z" fill="white" fill-opacity="0.15"/>
</svg>
