<svg width="36" height="32" viewBox="0 0 36 32" fill="none" xmlns="http://www.w3.org/2000/svg">
<path d="M10.2823 3.29209L2.383 14.293C2.383 14.293 1.30601 9.21591 3.19075 6.8823C5.07548 4.5487 6.75096 0.974609 8.1272 0.969734C9.50344 0.964859 10.2823 3.29209 10.2823 3.29209Z" fill="#996D6D"/>
<path d="M18.0001 0.330078C17.0427 0.330078 16.4551 0.802949 15.6571 0.970197C14.8591 1.13745 12.3605 -0.00479338 10.9321 0.970197C9.50376 1.94519 5.62854 5.6569 4.7698 8.85675C3.91106 12.0566 5.54005 14.1521 4.7698 16.1268C3.99956 18.1015 3.38607 21.5121 4.7698 22.8584C6.15354 24.2046 4.8073 28.0641 9.65413 28.2437C12.5432 28.3568 15.4141 27.7393 18.0012 26.4486L18.0001 0.330078Z" fill="#F5F1DB"/>
<path d="M10.6403 25.7307C10.6403 25.7307 9.16354 28.3182 10.1903 29.9491C12.2846 33.27 13.0624 30.9364 15.0371 29.9491C15.6746 29.6307 15.9048 30.6672 17.9996 30.1287V19.2695C17.9996 19.2695 12.8546 21.1531 10.6403 25.7307Z" fill="#A8A697"/>
<path d="M18.0002 21.124C18.0002 21.124 15.1281 21.574 14.1408 22.5603C13.1534 23.5465 13.2434 27.3538 14.1408 27.4251C15.0381 27.4963 15.7683 26.3297 15.7683 26.3297L18.0002 25.8797V21.124Z" fill="#F37777"/>
<path d="M18.0001 10.4727C15.5964 10.4727 11.3087 11.6393 10.6296 15.1399C9.95045 18.6405 6.11049 23.4869 6.76711 26.5398C7.42372 29.5926 8.12497 30.9377 10.6296 30.9377C13.1342 30.9377 14.642 24.655 15.5743 23.9369C16.5065 23.2188 18.0001 23.1292 18.0001 21.7829V10.4727Z" fill="#C6C5B3"/>
<path d="M18.0001 11.1C17.07 10.9698 16.124 11.1725 15.3289 11.6724C14.5339 12.1722 13.9412 12.9369 13.6554 13.8314C12.4355 17.1138 13.5567 18.9089 15.1947 18.0111C16.8327 17.1134 17.9997 21.781 17.9997 21.781L18.0001 11.1Z" fill="#A8A697"/>
<path d="M18 11.1006C15.7418 11.1006 13.6553 12.6306 13.6553 13.8324C13.6553 15.0343 14.8211 15.9084 15.768 15.4712C16.7149 15.0339 17.0895 16.127 18 16.127V11.1006Z" fill="#4C383D"/>
<path d="M13.8541 8.31933C12.8457 6.71247 11.2666 7.24197 10.3711 8.76933C9.47564 10.2967 6.86979 11.2799 7.76978 12.8943C8.66977 14.5086 11.087 13.732 12.9755 12.8943C14.864 12.0565 15.0935 10.2926 13.8541 8.31933Z" fill="#C6C5B3"/>
<path d="M11.9073 12.1797C12.4856 12.1797 12.9543 11.6964 12.9543 11.1001C12.9543 10.5039 12.4856 10.0205 11.9073 10.0205C11.3291 10.0205 10.8604 10.5039 10.8604 11.1001C10.8604 11.6964 11.3291 12.1797 11.9073 12.1797Z" fill="#4C383D"/>
<path d="M11.9076 11.7517C12.2568 11.7517 12.5399 11.4599 12.5399 11.1C12.5399 10.74 12.2568 10.4482 11.9076 10.4482C11.5585 10.4482 11.2754 10.74 11.2754 11.1C11.2754 11.4599 11.5585 11.7517 11.9076 11.7517Z" fill="#3D2A2E"/>
<path d="M11.4089 10.9254C11.5166 10.9254 11.6039 10.8354 11.6039 10.7244C11.6039 10.6134 11.5166 10.5234 11.4089 10.5234C11.3012 10.5234 11.2139 10.6134 11.2139 10.7244C11.2139 10.8354 11.3012 10.9254 11.4089 10.9254Z" fill="#FBFCFC"/>
<path d="M11.6031 1.76626C11.6031 1.76626 8.92297 0.354398 7.58236 0.969767C6.24174 1.58514 4.26739 4.09911 1.93379 6.07384C-0.399818 8.04857 -0.0953214 11.0103 0.201301 13.6113C0.497923 16.2122 -0.57944 19.3888 1.12604 19.5966C2.83153 19.8043 4.35739 16.0341 5.25475 11.9958C6.15212 7.95745 7.22949 2.57138 7.94723 2.03288C8.66497 1.49439 10.2823 3.29212 10.2823 3.29212L11.6031 1.76626Z" fill="#C6C5B3"/>
<path d="M17.0128 15.7673C17.0128 15.7673 16.5872 13.3444 15.7678 13.6137C14.9484 13.8829 15.0613 14.277 15.7678 15.471C16.334 15.2096 16.6532 15.4954 17.0128 15.7673Z" fill="#3D2A2E"/>
<path d="M25.7192 3.29133L33.6178 14.2922C33.6178 14.2922 34.6948 9.21515 32.81 6.88155C30.9253 4.54795 29.2476 0.973857 27.8732 0.969732C26.4989 0.965607 25.7192 3.29133 25.7192 3.29133Z" fill="#996D6D"/>
<path d="M18 0.330078C18.9574 0.330078 19.545 0.802949 20.3434 0.970197C21.1417 1.13745 23.6399 -0.00479341 25.0683 0.970197C26.4967 1.94519 30.3715 5.6569 31.2317 8.85675C32.092 12.0566 30.4615 14.1521 31.2317 16.1268C32.002 18.1015 32.6155 21.5121 31.2317 22.8584C29.848 24.2046 31.1942 28.0641 26.3474 28.2437C23.4583 28.3567 20.5873 27.7393 18 26.4486V0.330078Z" fill="#F5F1DB"/>
<path d="M25.3604 25.7307C25.3604 25.7307 26.8371 28.3182 25.8104 29.9491C23.7164 33.27 22.9383 30.9364 20.9639 29.9491C20.3264 29.6307 20.0962 30.6672 18.0015 30.1287V19.2695C18.0015 19.2695 23.1449 21.1531 25.3604 25.7307Z" fill="#A8A697"/>
<path d="M18 21.124C18 21.124 20.8721 21.574 21.8595 22.5603C22.8468 23.5465 22.7572 27.3538 21.8595 27.4251C20.9617 27.4963 20.2324 26.3297 20.2324 26.3297L18 25.8797V21.124Z" fill="#F37777"/>
<path d="M18 10.4727C20.4041 10.4727 24.6918 11.6393 25.3706 15.1399C26.0493 18.6405 29.8896 23.4869 29.233 26.5398C28.5764 29.5926 27.8752 30.9377 25.3706 30.9377C22.866 30.9377 21.3581 24.655 20.4258 23.9369C19.4936 23.2188 18 23.1292 18 21.7829V10.4727Z" fill="#C6C5B3"/>
<path d="M18 11.1C18.93 10.9698 19.8761 11.1725 20.6711 11.6724C21.4661 12.1722 22.0589 12.9369 22.3447 13.8314C23.5649 17.1134 22.4437 18.9085 20.8053 18.0108C19.167 17.113 18 21.7814 18 21.7814V11.1Z" fill="#A8A697"/>
<path d="M18 11.1006C20.2582 11.1006 22.3447 12.6306 22.3447 13.8324C22.3447 15.0343 21.1792 15.9084 20.2324 15.4712C19.2855 15.0339 18.9105 16.127 18 16.127V11.1006Z" fill="#4C383D"/>
<path d="M22.1465 8.31933C23.1545 6.71247 24.7317 7.24197 25.6294 8.76933C26.5272 10.2967 29.1297 11.2818 28.2323 12.898C27.3349 14.5143 24.9151 13.7358 23.0266 12.898C21.1381 12.0603 20.9071 10.2926 22.1465 8.31933Z" fill="#C6C5B3"/>
<path d="M24.0934 12.1797C24.6716 12.1797 25.1404 11.6964 25.1404 11.1001C25.1404 10.5039 24.6716 10.0205 24.0934 10.0205C23.5151 10.0205 23.0464 10.5039 23.0464 11.1001C23.0464 11.6964 23.5151 12.1797 24.0934 12.1797Z" fill="#4C383D"/>
<path d="M24.0942 11.7517C24.4433 11.7517 24.7264 11.4599 24.7264 11.1C24.7264 10.74 24.4433 10.4482 24.0942 10.4482C23.745 10.4482 23.4619 10.74 23.4619 11.1C23.4619 11.4599 23.745 11.7517 24.0942 11.7517Z" fill="#3D2A2E"/>
<path d="M24.5929 10.9254C24.7006 10.9254 24.7879 10.8354 24.7879 10.7244C24.7879 10.6134 24.7006 10.5234 24.5929 10.5234C24.4853 10.5234 24.3979 10.6134 24.3979 10.7244C24.3979 10.8354 24.4853 10.9254 24.5929 10.9254Z" fill="#FBFCFC"/>
<path d="M24.397 1.76584C24.397 1.76584 27.0771 0.353983 28.4177 0.970102C29.7583 1.58622 31.7323 4.09945 34.0659 6.07418C36.3995 8.04891 36.095 11.0106 35.7987 13.6116C35.5025 16.2126 36.5791 19.3892 34.874 19.5969C33.1689 19.8047 31.6427 16.0345 30.7453 11.9961C29.8479 7.95779 28.7706 2.57171 28.0524 2.03322C27.3343 1.49472 25.7188 3.28983 25.7188 3.28983L24.397 1.76584Z" fill="#C6C5B3"/>
<path d="M18.9873 15.7673C18.9873 15.7673 19.4129 13.3444 20.2327 13.6137C21.0524 13.8829 20.9388 14.277 20.2327 15.471C19.666 15.2096 19.3469 15.4954 18.9873 15.7673Z" fill="#3D2A2E"/>
</svg>
