<svg width="21" height="20" viewBox="0 0 21 20" fill="none" xmlns="http://www.w3.org/2000/svg">
<path d="M8.12248 9.91797C8.17043 9.89742 8.20468 9.88372 8.23893 9.87002C8.83483 9.62344 12.6978 7.55495 12.9992 7.16457C13.2869 6.80154 13.4033 6.24672 13.3143 5.644C13.2869 5.43167 13.2937 5.19193 13.328 4.96594C11.8896 4.17824 10.1088 4.42482 8.93758 5.59606L8.93073 5.60291C8.84168 5.69195 8.69098 5.69195 8.60193 5.60291L8.59508 5.59606C7.89648 4.89745 6.96498 4.51387 5.97868 4.51387C4.99238 4.51387 4.06088 4.89745 3.36222 5.59606C1.91702 7.04128 1.91702 9.38375 3.36222 10.8289L5.38963 12.8564C5.68413 10.8632 7.49238 10.1577 8.12248 9.91797Z" fill="#3B83F6"/>
<path d="M17.9788 5.89779H17.0541C16.9651 5.89779 16.8829 5.843 16.8418 5.7608C16.4582 4.91835 15.3213 5.00054 15.3144 5.00054C15.2459 5.00739 15.1843 4.97999 15.1363 4.9389C15.0884 4.8978 15.061 4.83615 15.061 4.76766V3.72656C14.2391 3.89095 13.9309 4.43887 13.8213 4.89095V4.8978C13.7459 5.21283 13.7665 5.47312 13.7802 5.57586C13.8829 6.30187 13.7322 6.98683 13.3692 7.45256C12.9514 7.97998 8.88978 10.1101 8.41718 10.3019C8.38293 10.3156 8.34183 10.3293 8.29388 10.3498C7.63633 10.6033 5.89663 11.2813 5.82812 13.2745L8.86923 16.3019C9.32128 16.3019 11.2939 16.3019 12.8761 16.3019C12.8418 16.0485 12.7528 15.6992 12.5747 15.5485C12.198 15.2403 11.9103 15.0416 11.3487 15.0416H8.60893C8.47878 15.0416 8.37608 14.9389 8.37608 14.8088C8.37608 14.6786 8.47878 14.5759 8.60893 14.5759H10.5404C10.4719 14.0622 10.3281 13.3772 10.1226 13.1306C9.79387 12.7334 9.19798 12.4389 8.65003 12.3978C8.51988 12.3909 8.42403 12.2745 8.43088 12.1512C8.43773 12.0211 8.55413 11.9252 8.67743 11.932C9.34868 11.98 10.0678 12.3361 10.4788 12.8293C10.8076 13.2197 10.9514 14.1443 11.0062 14.569H11.3418C12.061 14.569 12.4446 14.8362 12.8624 15.1855C13.198 15.4594 13.3076 15.9868 13.3418 16.2951H14.6158L13.2322 12.9526C13.2185 12.9252 13.2117 12.891 13.2117 12.8636V11.2608C13.2117 11.1307 13.3144 11.0279 13.4446 11.0279C13.5747 11.0279 13.6774 11.1307 13.6774 11.2608V12.8156L15.1158 16.2951C15.7117 16.2951 15.9925 16.2814 16.1774 16.1033C16.2322 16.0553 16.1021 15.7951 15.9377 15.617C15.9103 15.5896 15.8898 15.5553 15.8829 15.5211L15.1295 12.7266C15.1158 12.6786 15.1226 12.6238 15.1432 12.5759C15.9856 10.6581 15.6637 8.07587 15.6569 8.05533C15.65 7.98683 15.6706 7.92518 15.7117 7.87039C15.7528 7.82244 15.8213 7.78819 15.8898 7.78819H16.8829C17.4993 7.79504 17.9446 7.79504 18.2665 6.89094C18.3761 6.57586 18.3829 6.32242 18.287 6.13753C18.2048 5.98684 18.0404 5.91834 17.9788 5.89779Z" fill="#3B83F6"/>
<path d="M16.5815 0H4.06104C1.99252 0 0.321289 1.67126 0.321289 3.73975V16.2603C0.321289 18.3288 1.99252 20 4.06104 20H16.5815C18.65 20 20.3213 18.3288 20.3213 16.2603V3.73975C20.3213 1.67126 18.65 0 16.5815 0ZM18.7117 7.06166C18.2802 8.28085 17.5062 8.274 16.8898 8.274H16.1569C16.2185 8.99316 16.3144 11.0274 15.6089 12.7055L16.3213 15.3699C16.6089 15.6986 16.8213 16.1644 16.5062 16.4657C16.1843 16.7671 15.7733 16.7808 15.1569 16.7808C15.1295 16.7808 15.1021 16.7808 15.0679 16.7808H14.972H13.1363C13.1363 16.7808 13.1363 16.7808 13.1295 16.7808C11.424 16.7808 9.11579 16.7808 8.80759 16.7808C8.79389 16.7808 8.78019 16.7808 8.76649 16.7808H8.75964C8.71854 16.774 8.67744 16.7603 8.64319 16.7397C8.62949 16.7329 8.62264 16.7192 8.60894 16.7123L5.43089 13.548L3.04047 11.1575C1.41718 9.53428 1.41718 6.89042 3.04047 5.26711C4.60894 3.69865 7.13634 3.64385 8.77334 5.11642C10.061 3.95203 11.924 3.71235 13.4583 4.50685C13.6569 3.99313 14.1363 3.34247 15.2733 3.23972C15.3418 3.23287 15.4035 3.25342 15.4514 3.30137C15.4994 3.34247 15.5268 3.41096 15.5268 3.47261V4.54795C15.9446 4.5685 16.7733 4.70549 17.198 5.4452H18.0131C18.0336 5.4452 18.0473 5.4452 18.0679 5.45205C18.1089 5.4589 18.4925 5.55479 18.698 5.93837C18.8624 6.22601 18.8692 6.60959 18.7117 7.06166Z" fill="#3B83F6"/>
</svg>
