<svg width="18" height="16" viewBox="0 0 18 16" fill="none" xmlns="http://www.w3.org/2000/svg">
<path d="M10.1816 8.0002L11.9362 10.0057L14.2955 11.5134L14.7068 8.01254L14.2955 4.58984L11.8909 5.91449L10.1816 8.0002Z" fill="#00832D"/>
<path d="M0 11.1893V14.1719C0 14.8537 0.55228 15.406 1.23414 15.406H4.21666L4.83373 13.1516L4.21666 11.1893L2.17004 10.5723L0 11.1893Z" fill="#0066DA"/>
<path d="M4.21666 0.595703L0 4.81236L2.17004 5.42944L4.21666 4.81236L4.82345 2.87681L4.21666 0.595703Z" fill="#E94235"/>
<path d="M4.21666 4.8125H0V11.1889H4.21666V4.8125Z" fill="#2684FC"/>
<path d="M16.9902 2.38134L14.2956 4.59046V11.514L17.0025 13.7334C17.4077 14.0502 18.0001 13.7612 18.0001 13.2459V2.85854C18.0001 2.33711 17.3944 2.0512 16.9902 2.38134ZM10.1818 8.00081V11.189H4.2168V15.4057H13.0615C13.7434 15.4057 14.2956 14.8534 14.2956 14.1715V11.514L10.1818 8.00081Z" fill="#00AC47"/>
<path d="M13.0615 0.595703H4.2168V4.81236H10.1818V8.00057L14.2956 4.59227V1.82985C14.2956 1.14798 13.7434 0.595703 13.0615 0.595703Z" fill="#FFBA00"/>
</svg>
