<svg width="20" height="20" viewBox="0 0 20 20" fill="none" xmlns="http://www.w3.org/2000/svg">
<path d="M15.2636 4.73633H4.7373V15.2626H15.2636V4.73633Z" fill="white"/>
<path d="M15.2627 20.0005L19.9995 15.2637H15.2627V20.0005Z" fill="#EA4335"/>
<path d="M19.9995 4.73633H15.2627V15.2626H19.9995V4.73633Z" fill="#FBBC04"/>
<path d="M15.2636 15.2637H4.7373V20.0005H15.2636V15.2637Z" fill="#34A853"/>
<path d="M0 15.2637V18.4216C0 19.2939 0.706579 20.0005 1.57895 20.0005H4.73684V15.2637H0Z" fill="#188038"/>
<path d="M19.9995 4.73684V1.57895C19.9995 0.706579 19.293 0 18.4206 0H15.2627V4.73684H19.9995Z" fill="#1967D2"/>
<path d="M15.2632 0H1.57895C0.706579 0 0 0.706579 0 1.57895V15.2632H4.73684V4.73684H15.2632V0Z" fill="#4285F4"/>
<path d="M6.89651 12.9024C6.50308 12.6366 6.23072 12.2485 6.08203 11.7353L6.99519 11.359C7.07808 11.6748 7.22282 11.9195 7.4294 12.0932C7.63466 12.2669 7.88467 12.3524 8.17677 12.3524C8.47546 12.3524 8.73203 12.2616 8.9465 12.0801C9.16098 11.8985 9.26887 11.6669 9.26887 11.3866C9.26887 11.0998 9.15571 10.8656 8.9294 10.684C8.70308 10.5024 8.41887 10.4116 8.0794 10.4116H7.55177V9.50769H8.02545C8.31756 9.50769 8.56361 9.42874 8.76361 9.27085C8.96361 9.11295 9.06361 8.89716 9.06361 8.62216C9.06361 8.37743 8.97414 8.18269 8.79519 8.03664C8.61624 7.89058 8.38993 7.8169 8.11493 7.8169C7.84651 7.8169 7.63335 7.88795 7.47545 8.03137C7.31766 8.17518 7.19903 8.35674 7.13072 8.55901L6.22677 8.18269C6.34651 7.84322 6.56624 7.54322 6.88861 7.28401C7.21098 7.0248 7.62282 6.89453 8.12282 6.89453C8.49256 6.89453 8.82545 6.96558 9.12019 7.10901C9.41493 7.25243 9.6465 7.45111 9.81361 7.70374C9.98072 7.95769 10.0636 8.2419 10.0636 8.55769C10.0636 8.88006 9.98598 9.15243 9.83072 9.37611C9.67545 9.59979 9.48466 9.77085 9.25835 9.89058V9.94453C9.55057 10.065 9.80442 10.2629 9.99256 10.5169C10.1833 10.7735 10.2794 11.0801 10.2794 11.438C10.2794 11.7958 10.1886 12.1156 10.007 12.3958C9.82545 12.6761 9.57414 12.8972 9.25572 13.0577C8.93598 13.2182 8.57677 13.2998 8.17808 13.2998C7.71624 13.3011 7.28993 13.1682 6.89651 12.9024ZM12.5057 8.37085L11.5031 9.09585L11.0018 8.33532L12.8005 7.03795H13.4899V13.1577H12.5057V8.37085Z" fill="#4285F4"/>
</svg>
