<svg width="55" height="18" viewBox="0 0 55 18" fill="none" xmlns="http://www.w3.org/2000/svg">
<g clip-path="url(#clip0_4475_28762)">
<path d="M23.3541 9.47243C23.3541 12.0609 21.3346 13.9683 18.8563 13.9683C16.3779 13.9683 14.3584 12.0609 14.3584 9.47243C14.3584 6.86572 16.3779 4.97656 18.8563 4.97656C21.3346 4.97656 23.3541 6.86572 23.3541 9.47243ZM21.3852 9.47243C21.3852 7.85489 20.2147 6.74815 18.8563 6.74815C17.4978 6.74815 16.3274 7.85489 16.3274 9.47243C16.3274 11.0738 17.4978 12.1967 18.8563 12.1967C20.2147 12.1967 21.3852 11.0717 21.3852 9.47243Z" fill="#EA4335"/>
<path d="M33.0563 9.47243C33.0563 12.0609 31.0368 13.9683 28.5584 13.9683C26.08 13.9683 24.0605 12.0609 24.0605 9.47243C24.0605 6.86775 26.08 4.97656 28.5584 4.97656C31.0368 4.97656 33.0563 6.86572 33.0563 9.47243ZM31.0873 9.47243C31.0873 7.85489 29.9169 6.74815 28.5584 6.74815C27.1999 6.74815 26.0295 7.85489 26.0295 9.47243C26.0295 11.0738 27.1999 12.1967 28.5584 12.1967C29.9169 12.1967 31.0873 11.0717 31.0873 9.47243Z" fill="#FBBC05"/>
<path d="M42.3553 5.24818V13.3197C42.3553 16.6399 40.4025 17.9959 38.0939 17.9959C35.9208 17.9959 34.6128 16.5385 34.1196 15.3467L35.8338 14.6311C36.1391 15.3629 36.8871 16.2264 38.0919 16.2264C39.5696 16.2264 40.4853 15.3122 40.4853 13.5913V12.9447H40.4166C39.9759 13.4899 39.1269 13.9663 38.0555 13.9663C35.8136 13.9663 33.7598 12.0082 33.7598 9.48865C33.7598 6.95085 35.8136 4.97656 38.0555 4.97656C39.1249 4.97656 39.9739 5.45291 40.4166 5.98195H40.4853V5.25021H42.3553V5.24818ZM40.6248 9.48865C40.6248 7.90557 39.5716 6.74815 38.2314 6.74815C36.8729 6.74815 35.7348 7.90557 35.7348 9.48865C35.7348 11.0555 36.8729 12.1967 38.2314 12.1967C39.5716 12.1967 40.6248 11.0555 40.6248 9.48865Z" fill="#4285F4"/>
<path d="M45.439 0.517578V13.693H43.5186V0.517578H45.439Z" fill="#34A853"/>
<path d="M52.9225 10.9522L54.4507 11.9738C53.9575 12.7056 52.7688 13.9664 50.715 13.9664C48.1679 13.9664 46.2656 11.9921 46.2656 9.47048C46.2656 6.79688 48.184 4.97461 50.4946 4.97461C52.8214 4.97461 53.9595 6.83134 54.3315 7.8347L54.5356 8.3455L48.5418 10.8346C49.0007 11.7367 49.7143 12.1968 50.715 12.1968C51.7176 12.1968 52.413 11.7022 52.9225 10.9522ZM48.2184 9.33467L52.225 7.66646C52.0047 7.10498 51.3416 6.71377 50.5613 6.71377C49.5607 6.71377 48.1679 7.59957 48.2184 9.33467Z" fill="#EA4335"/>
<path d="M7.08848 8.30242V6.39502H13.4987C13.5614 6.72745 13.5937 7.12068 13.5937 7.54635C13.5937 8.97741 13.2035 10.747 11.9462 12.0078C10.7232 13.2848 9.16053 13.9658 7.0905 13.9658C3.25367 13.9658 0.0273438 10.8321 0.0273438 6.98487C0.0273438 3.13764 3.25367 0.00390625 7.0905 0.00390625C9.21308 0.00390625 10.7252 0.839028 11.8613 1.92752L10.519 3.27345C9.70431 2.50724 8.60057 1.91131 7.08848 1.91131C4.28666 1.91131 2.09535 4.17546 2.09535 6.98487C2.09535 9.79429 4.28666 12.0584 7.08848 12.0584C8.90582 12.0584 9.94083 11.3267 10.6039 10.6618C11.1416 10.1227 11.4954 9.3524 11.6349 8.30039L7.08848 8.30242Z" fill="#4285F4"/>
</g>
<defs>
<clipPath id="clip0_4475_28762">
<rect width="54.5625" height="18" fill="white"/>
</clipPath>
</defs>
</svg>
