<svg width="40" height="41" viewBox="0 0 40 41" fill="none" xmlns="http://www.w3.org/2000/svg">
<g clip-path="url(#clip0_11751_523)">
<path d="M11.6667 10.5005H38.3333C38.7754 10.5005 39.1993 10.3249 39.5118 10.0124C39.8244 9.69982 40 9.2759 40 8.83387C40 8.39184 39.8244 7.96792 39.5118 7.65536C39.1993 7.3428 38.7754 7.16721 38.3333 7.16721H11.6667C11.2246 7.16721 10.8007 7.3428 10.4882 7.65536C10.1756 7.96792 10 8.39184 10 8.83387C10 9.2759 10.1756 9.69982 10.4882 10.0124C10.8007 10.3249 11.2246 10.5005 11.6667 10.5005Z" fill="#3B82F6"/>
<path d="M38.3333 18.8328H11.6667C11.2246 18.8328 10.8007 19.0084 10.4882 19.321C10.1756 19.6335 10 20.0574 10 20.4995C10 20.9415 10.1756 21.3654 10.4882 21.678C10.8007 21.9906 11.2246 22.1661 11.6667 22.1661H38.3333C38.7754 22.1661 39.1993 21.9906 39.5118 21.678C39.8244 21.3654 40 20.9415 40 20.4995C40 20.0574 39.8244 19.6335 39.5118 19.321C39.1993 19.0084 38.7754 18.8328 38.3333 18.8328Z" fill="#3B82F6"/>
<path d="M38.3333 30.5H11.6667C11.2246 30.5 10.8007 30.6756 10.4882 30.9882C10.1756 31.3007 10 31.7246 10 32.1667C10 32.6087 10.1756 33.0326 10.4882 33.3452C10.8007 33.6578 11.2246 33.8334 11.6667 33.8334H38.3333C38.7754 33.8334 39.1993 33.6578 39.5118 33.3452C39.8244 33.0326 40 32.6087 40 32.1667C40 31.7246 39.8244 31.3007 39.5118 30.9882C39.1993 30.6756 38.7754 30.5 38.3333 30.5Z" fill="#3B82F6"/>
<path d="M3.33333 12.1666C5.17428 12.1666 6.66667 10.6743 6.66667 8.83331C6.66667 6.99237 5.17428 5.49998 3.33333 5.49998C1.49238 5.49998 0 6.99237 0 8.83331C0 10.6743 1.49238 12.1666 3.33333 12.1666Z" fill="#3B82F6"/>
<path d="M3.33333 23.8339C5.17428 23.8339 6.66667 22.3415 6.66667 20.5005C6.66667 18.6596 5.17428 17.1672 3.33333 17.1672C1.49238 17.1672 0 18.6596 0 20.5005C0 22.3415 1.49238 23.8339 3.33333 23.8339Z" fill="#3B82F6"/>
<path d="M3.33333 35.4994C5.17428 35.4994 6.66667 34.007 6.66667 32.1661C6.66667 30.3251 5.17428 28.8328 3.33333 28.8328C1.49238 28.8328 0 30.3251 0 32.1661C0 34.007 1.49238 35.4994 3.33333 35.4994Z" fill="#3B82F6"/>
</g>
<defs>
<clipPath id="clip0_11751_523">
<rect width="40" height="40" fill="white" transform="translate(0 0.5)"/>
</clipPath>
</defs>
</svg>
