<svg width="102" height="29" viewBox="0 0 102 29" fill="none" xmlns="http://www.w3.org/2000/svg">
<path d="M0.0387152 15.5191C-0.0226706 14.7106 -0.0110387 13.8982 0.0734755 13.0917C0.20429 11.7435 0.52512 10.4204 1.02644 9.16199C1.70184 7.49443 2.67493 5.96362 3.89818 4.6443C5.76179 2.60914 8.04709 1.26924 10.6997 0.533924C11.7763 0.231633 12.8853 0.0593633 14.0029 0.0207911C17.4164 -0.0698354 20.7544 1.03432 23.4405 3.1426C26.1267 5.25088 27.9923 8.23095 28.7153 11.5682C28.8812 12.3515 28.975 13.1483 28.9957 13.9487C29.0381 15.7453 28.7668 17.5355 28.1939 19.2388C27.5498 21.1783 26.4765 22.9476 25.0539 24.4147C23.8495 25.6715 22.4528 26.7286 20.9163 27.5464C19.8972 28.0834 18.806 28.4708 17.6765 28.6966C16.7053 28.8953 15.716 28.9921 14.7246 28.9853C13.1172 28.9793 11.5393 28.7783 10.0037 28.2848C7.97304 27.6343 6.11947 26.5249 4.58664 25.0427C3.6042 24.1003 2.65653 23.1179 1.69676 22.1506C1.54562 21.9994 1.41639 21.8347 1.2796 21.6737C1.24077 21.6273 1.20731 21.5765 1.17985 21.5226C1.15993 21.4926 1.14888 21.4576 1.14798 21.4216C1.14708 21.3856 1.15636 21.3501 1.17476 21.3191C1.19316 21.2881 1.21992 21.263 1.25197 21.2466C1.28403 21.2302 1.32006 21.2232 1.35593 21.2263C1.58477 21.2318 1.80567 21.3114 1.98545 21.453C2.22804 21.6231 2.46383 21.8022 2.70415 21.9753C3.40092 22.4755 4.08485 22.9955 4.79825 23.4708C5.96659 24.2507 7.26114 24.7404 8.63051 25.0374C9.56444 25.2365 10.5145 25.3506 11.469 25.3783C12.0151 25.398 12.5578 25.2852 13.0507 25.0495C13.3817 24.8916 13.6084 24.6354 13.6553 24.2575C13.6984 23.9303 13.5797 23.6461 13.387 23.3892C13.0749 22.9728 12.685 22.6335 12.2958 22.2919C12.0033 22.035 11.7055 21.7818 11.432 21.5052C11.1994 21.2789 11.0177 21.0056 10.8992 20.7035C10.7806 20.4014 10.7278 20.0775 10.7443 19.7534C10.7556 19.5318 10.8255 19.3172 10.9468 19.1315C10.9777 19.083 11.0156 19.0395 11.0594 19.0022C11.0732 18.9868 11.0904 18.9746 11.1096 18.9667C11.1287 18.9588 11.1495 18.9553 11.1702 18.9565C11.1909 18.9578 11.2111 18.9637 11.2292 18.9738C11.2473 18.984 11.2629 18.9981 11.2748 19.0151C11.3016 19.0436 11.3254 19.0747 11.3458 19.108C11.8104 19.8664 12.4428 20.5082 13.1943 20.9837C13.7074 21.317 14.2448 21.614 14.7745 21.9231C15.5771 22.3916 16.3457 22.9055 17.0311 23.5403C17.5643 24.0285 18.0304 24.5853 18.4171 25.1961C18.5947 25.4795 18.8494 25.5619 19.1494 25.4229C20.2654 24.9324 21.3059 24.2856 22.2395 23.5018C23.6754 22.2745 24.7334 20.7714 25.4544 19.0272C26.2597 17.0859 26.53 14.9643 26.2373 12.8832C25.9795 10.9886 25.2676 9.18443 24.1623 7.62426C23.057 6.06409 21.5911 4.79415 19.8892 3.92258C17.6326 2.73766 15.0709 2.2612 12.5391 2.55548C10.0377 2.85248 7.82113 3.81829 5.86381 5.39548C4.1385 6.78676 2.73513 8.4433 1.70734 10.4112C1.03798 11.7015 0.544142 13.0755 0.238974 14.4966C0.170203 14.8118 0.115795 15.1307 0.053826 15.4473C0.0515588 15.4738 0.044761 15.4964 0.0387152 15.5191Z" fill="#fff"/>
<path d="M2.59766 21.2339C2.78885 21.091 2.97552 20.9467 3.1652 20.8106C3.89977 20.2816 4.64037 19.7678 5.36964 19.2365C6.15483 18.6644 6.87051 18.019 7.44561 17.2278C7.96436 16.4964 8.37184 15.6921 8.65477 14.8412C8.90059 14.1193 9.09504 13.3809 9.23667 12.6315C9.24196 12.605 9.25028 12.5786 9.2601 12.5378C9.28428 12.5725 9.30241 12.5982 9.3198 12.6247C9.82235 13.3804 10.4972 13.9094 11.3806 14.1361C12.2082 14.347 13.0024 14.2321 13.7234 13.7583C14.4723 13.2648 14.6892 12.4494 14.4413 11.6679C14.0514 10.4391 13.641 9.21637 13.2382 7.99211C13.222 7.94037 13.1988 7.89106 13.1694 7.8455C13.144 7.80197 13.1055 7.76757 13.0593 7.74722C13.0132 7.72686 12.9618 7.72159 12.9125 7.73214C12.8631 7.74344 12.819 7.77093 12.7871 7.81024C12.7552 7.84955 12.7373 7.89841 12.7364 7.94903C12.7305 8.05363 12.7399 8.15852 12.7644 8.26039C13.0871 9.48088 13.4158 10.6999 13.74 11.9196C13.8912 12.4909 13.6841 12.9549 13.1596 13.2308C12.7855 13.4178 12.3675 13.4996 11.9505 13.4673C11.3262 13.4386 10.8275 13.1446 10.3899 12.729C9.88957 12.2676 9.57286 11.6409 9.49814 10.9644C9.47534 10.6999 9.47332 10.4341 9.4921 10.1693C9.50912 9.65915 9.59686 9.15379 9.75282 8.66773C9.99994 7.91729 10.4428 7.29231 10.9756 6.72099C11.5711 6.0824 12.2732 5.60705 13.109 5.35539C14.8849 4.82034 16.5097 5.137 17.9894 6.25017C18.4686 6.61141 18.8502 7.06861 19.2386 7.51978C19.4159 7.72951 19.61 7.92438 19.819 8.10244C20.1296 8.36165 20.512 8.46972 20.9058 8.50826C21.338 8.54957 21.7718 8.57476 22.2071 8.58383C22.9296 8.59592 23.4291 9.02367 23.5062 9.74463C23.5735 10.3623 23.4972 10.9871 23.2833 11.5704C23.046 12.2264 22.5661 12.6753 21.9623 12.9897C21.3955 13.2852 20.8143 13.5519 20.2392 13.8308C19.7427 14.0719 19.2439 14.3077 18.7504 14.5555C18.257 14.8034 17.8564 15.1601 17.641 15.6891C17.5153 16.0112 17.4719 16.3595 17.5148 16.7025C17.5504 17.0472 17.5836 17.3933 17.6123 17.7386C17.6494 18.1921 17.6879 18.6455 17.7136 19.0989C17.737 19.4602 17.7544 19.8222 17.7627 20.1842C17.7763 20.8152 17.7884 21.447 17.7884 22.078C17.7884 22.545 17.768 23.0128 17.7559 23.5003C17.6592 23.4065 17.5753 23.3242 17.4891 23.2433C16.7576 22.5488 15.9316 21.9835 15.0633 21.4772C14.5494 21.1749 14.0287 20.8908 13.5292 20.5703C12.8187 20.1268 12.2206 19.5246 11.7819 18.811C11.6368 18.5707 11.4283 18.4173 11.1282 18.4279C11.0298 18.432 10.9334 18.4573 10.8455 18.5018C10.7577 18.5464 10.6804 18.6093 10.6189 18.6863C10.3495 19.002 10.2041 19.4049 10.21 19.8199C10.2017 20.2015 10.272 20.5808 10.4164 20.9342C10.5608 21.2875 10.7764 21.6074 11.0496 21.874C11.3905 22.2155 11.7706 22.5178 12.122 22.8488C12.3963 23.1073 12.6578 23.3778 12.9155 23.6544C12.9922 23.7441 13.0528 23.8464 13.0946 23.9567C13.136 24.0456 13.1452 24.1461 13.1205 24.241C13.0958 24.3359 13.0388 24.4192 12.9594 24.4767C12.7954 24.615 12.5921 24.6671 12.3933 24.7283C11.9467 24.8658 11.4865 24.8704 11.033 24.8296C10.6302 24.7933 10.2267 24.7608 9.82386 24.7064C9.43845 24.6535 9.0568 24.5757 8.67516 24.5054C8.63526 24.4922 8.59757 24.4731 8.56332 24.4487C8.42954 24.3694 8.29098 24.2985 8.14843 24.2363C8.06975 24.2184 7.98739 24.226 7.9134 24.2582C7.8621 24.279 7.80514 24.2812 7.75243 24.2643C6.64308 23.9315 5.59621 23.418 4.65397 22.7445C3.97382 22.2563 3.30199 21.7621 2.62713 21.2648C2.61663 21.2552 2.60679 21.2448 2.59766 21.2339Z" fill="#fff"/>
<path d="M39.6162 3.70025C39.6162 3.19959 39.8151 2.71944 40.1691 2.36541C40.5231 2.01139 41.0033 1.8125 41.504 1.8125C42.0046 1.8125 42.4848 2.01139 42.8388 2.36541C43.1928 2.71944 43.3917 3.19959 43.3917 3.70025V20.975H50.1431C50.3728 20.975 50.6001 21.0207 50.8118 21.1095C51.0236 21.1983 51.2155 21.3284 51.3764 21.4922C51.5373 21.656 51.664 21.8503 51.749 22.0636C51.834 22.2769 51.8756 22.505 51.8715 22.7346C51.8746 23.1969 51.6945 23.6416 51.3706 23.9715C51.0468 24.3014 50.6054 24.4896 50.1431 24.495H41.5057C41.0071 24.4885 40.5307 24.2876 40.178 23.9349C39.8254 23.5823 39.6245 23.1059 39.618 22.6072L39.6162 3.70025Z" fill="#fff"/>
<path d="M51.7788 9.65033C51.7788 9.18367 51.9642 8.73613 52.2942 8.40615C52.6241 8.07618 53.0717 7.89081 53.5383 7.89081C54.005 7.89081 54.4525 8.07618 54.7825 8.40615C55.1125 8.73613 55.2979 9.18367 55.2979 9.65033V17.4578C55.2979 20.1461 56.9301 21.5539 58.9781 21.5539C61.0261 21.5539 62.6575 20.1461 62.6575 17.4578V9.65033C62.6542 9.41829 62.6975 9.18797 62.7849 8.97297C62.8722 8.75797 63.0018 8.56267 63.1659 8.39862C63.33 8.23457 63.5254 8.10511 63.7405 8.01789C63.9555 7.93066 64.1858 7.88745 64.4179 7.89081C64.6491 7.8901 64.8783 7.93512 65.092 8.0233C65.3058 8.11147 65.5001 8.24106 65.6636 8.40459C65.8272 8.56812 65.9567 8.76236 66.0449 8.97615C66.1331 9.18995 66.1781 9.41907 66.1774 9.65033V17.3296C66.1774 21.9056 63.0101 24.8174 58.9781 24.8174C54.9461 24.8174 51.7788 21.9056 51.7788 17.3296V9.65033Z" fill="#fff"/>
<path d="M68.6451 15.3142C68.6451 10.7391 71.8134 7.85938 75.8444 7.85938C79.8755 7.85938 83.0446 10.7391 83.0446 15.3142V22.9944C83.0465 23.465 82.8621 23.9173 82.5315 24.2523C82.201 24.5874 81.7513 24.778 81.2806 24.7824C81.0469 24.7822 80.8156 24.7355 80.6001 24.645C80.3846 24.5545 80.1893 24.422 80.0255 24.2552C79.8618 24.0885 79.7328 23.8908 79.6462 23.6737C79.5596 23.4567 79.5171 23.2245 79.5211 22.9908V15.1833C79.5211 12.5271 77.8889 11.1193 75.8409 11.1193C73.7928 11.1193 72.1615 12.5271 72.1615 15.1833V22.9908C72.1668 23.2253 72.1252 23.4584 72.0391 23.6766C71.953 23.8947 71.8242 24.0935 71.6603 24.2612C71.4963 24.4288 71.3005 24.5621 71.0844 24.653C70.8682 24.744 70.6361 24.7908 70.4015 24.7908C70.167 24.7908 69.9349 24.744 69.7187 24.653C69.5026 24.5621 69.3068 24.4288 69.1428 24.2612C68.9789 24.0935 68.8501 23.8947 68.764 23.6766C68.6779 23.4584 68.6363 23.2253 68.6416 22.9908L68.6451 15.3142Z" fill="#fff"/>
<path d="M98.2401 22.8339C96.7735 24.1254 94.8827 24.8316 92.9285 24.8178C88.3204 24.8178 84.8325 21.0779 84.8325 16.338C84.8325 11.5982 88.324 7.86359 92.9285 7.86359C94.8891 7.84611 96.7848 8.56561 98.2401 9.87958V9.65518C98.2401 9.18852 98.4254 8.74098 98.7554 8.41101C99.0854 8.08103 99.5329 7.89565 99.9996 7.89565C100.466 7.89565 100.914 8.08103 101.244 8.41101C101.574 8.74098 101.759 9.18852 101.759 9.65518V22.9986C101.759 23.2297 101.714 23.4585 101.625 23.672C101.537 23.8854 101.407 24.0794 101.244 24.2428C101.08 24.4062 100.886 24.5358 100.673 24.6242C100.459 24.7126 100.231 24.7581 99.9996 24.7581C99.7685 24.7581 99.5397 24.7126 99.3262 24.6242C99.1128 24.5358 98.9188 24.4062 98.7554 24.2428C98.592 24.0794 98.4624 23.8854 98.374 23.672C98.2856 23.4585 98.2401 23.2297 98.2401 22.9986V22.8339ZM98.2401 16.338V16.1145C98.1118 13.2651 95.9997 11.1226 93.3123 11.1226C90.5599 11.1226 88.3845 13.363 88.3845 16.338C88.3845 19.313 90.5599 21.5543 93.3123 21.5543C96.0647 21.5543 98.2401 19.3139 98.2401 16.338Z" fill="#fff"/>
</svg>
