<svg xmlns="http://www.w3.org/2000/svg" width="87.834" height="83.183" viewBox="0 0 87.834 83.183">
  <g id="messages" transform="translate(-0.436 -1.366)">
    <path id="Path_3382" data-name="Path 3382" d="M19.634,11.863C15.121,28.558,3.372,37.684,1.2,45.731S-.922,71.923,36.09,81.93,84.678,70.675,87.069,61.824c11.2-41.437-59.44-79.531-67.434-49.961Z" transform="translate(0 0)" fill="#efefef"/>
    <path id="Path_3383" data-name="Path 3383" d="M11.75,40a5,5,0,0,0,5,5h5v7.5l6.876-7.5h22.5a5,5,0,0,0,5-5V18.751a5,5,0,0,0-5-5H16.751a5,5,0,0,0-5,5Z" transform="translate(16.976 18.581)" fill="#f3f3f1"/>
    <path id="Path_3384" data-name="Path 3384" d="M16.751,40V18.751a5,5,0,0,1,5-5h-5a5,5,0,0,0-5,5V40a5,5,0,0,0,5,5h5A5,5,0,0,1,16.751,40Z" transform="translate(16.976 18.581)" fill="#d5dbe1"/>
    <path id="Path_3385" data-name="Path 3385" d="M20.751,28.3V26.25h-5v7.5Z" transform="translate(22.978 37.336)" fill="#d5dbe1"/>
    <path id="Path_3386" data-name="Path 3386" d="M50.508,11.751v.625l-20.629,11.8a2.611,2.611,0,0,1-2.5,0L6.75,12.376v-.625a5.016,5.016,0,0,1,5-5H45.507A5.016,5.016,0,0,1,50.508,11.751Z" transform="translate(9.474 8.078)" fill="#ffc107"/>
    <path id="Path_3387" data-name="Path 3387" d="M50.508,9V29.629a5.016,5.016,0,0,1-5,5H11.751a5.016,5.016,0,0,1-5-5V9L27.379,20.8a2.611,2.611,0,0,0,2.5,0Z" transform="translate(9.474 11.454)" fill="#f3f3f1"/>
    <path id="Path_3388" data-name="Path 3388" d="M12.376,11.751v-.625A5,5,0,0,1,15.011,6.75H11.751a5.016,5.016,0,0,0-5,5v.625l20.629,11.8a2.611,2.611,0,0,0,2.5,0l2.11-1.208Z" transform="translate(9.474 8.078)" fill="#c1a028"/>
    <path id="Path_3389" data-name="Path 3389" d="M12.376,29.629V12.218L6.75,9V29.629a5.016,5.016,0,0,0,5,5h5.626A5.016,5.016,0,0,1,12.376,29.629Z" transform="translate(9.474 11.454)" fill="#d5dbe1"/>
    <g id="Group_179" data-name="Group 179" transform="translate(6.383 6.614)">
      <path id="Path_3390" data-name="Path 3390" d="M28.334,10.966a3.751,3.751,0,1,1,3.751-3.751A3.755,3.755,0,0,1,28.334,10.966Zm0-5a1.25,1.25,0,1,0,1.25,1.25A1.251,1.251,0,0,0,28.334,5.965Z" transform="translate(29.848 -3.465)" fill="#a4afc1"/>
      <path id="Path_3391" data-name="Path 3391" d="M0,0H2.5V5H0Z" transform="translate(0.441 58.5) rotate(-45)" fill="#a4afc1"/>
      <path id="Path_3392" data-name="Path 3392" d="M0,0H2.5V5H0Z" transform="translate(10.606 68.667) rotate(-45)" fill="#a4afc1"/>
      <path id="Path_3393" data-name="Path 3393" d="M0,0H5V2.5H0Z" transform="translate(0 70.434) rotate(-45)" fill="#a4afc1"/>
      <path id="Path_3394" data-name="Path 3394" d="M0,0H5V2.5H0Z" transform="translate(10.167 60.269) rotate(-45)" fill="#a4afc1"/>
    </g>
    <path id="Path_3395" data-name="Path 3395" d="M29.187,23.973a4.4,4.4,0,0,1-2.17-.573L6.378,11.606l1.86-3.258L28.877,20.14a.624.624,0,0,0,.62,0L50.136,8.348,52,11.606,31.357,23.4a4.346,4.346,0,0,1-2.17.575Z" transform="translate(8.916 10.476)" fill="#12263f"/>
    <path id="Path_3396" data-name="Path 3396" d="M46.632,41.006H12.876A6.882,6.882,0,0,1,6,34.13V12.876A6.882,6.882,0,0,1,12.876,6H46.632a6.882,6.882,0,0,1,6.876,6.876V34.13A6.882,6.882,0,0,1,46.632,41.006ZM12.876,9.751a3.13,3.13,0,0,0-3.126,3.126V34.13a3.13,3.13,0,0,0,3.126,3.126H46.632a3.13,3.13,0,0,0,3.126-3.126V12.876a3.13,3.13,0,0,0-3.126-3.126Z" transform="translate(8.349 6.953)" fill="#12263f"/>
    <path id="Path_3397" data-name="Path 3397" d="M22.877,55.507A1.875,1.875,0,0,1,21,53.632V48.006H17.876A6.882,6.882,0,0,1,11,41.13V34.879h3.751V41.13a3.13,3.13,0,0,0,3.126,3.126h5a1.876,1.876,0,0,1,1.875,1.875v2.68l3.618-3.948a1.876,1.876,0,0,1,1.383-.608h22.5a3.13,3.13,0,0,0,3.126-3.126V19.876a3.13,3.13,0,0,0-3.126-3.126H50.382V13h1.875a6.882,6.882,0,0,1,6.876,6.876V41.13a6.882,6.882,0,0,1-6.876,6.876H30.578L24.26,54.9A1.877,1.877,0,0,1,22.877,55.507Z" transform="translate(15.851 17.456)" fill="#12263f"/>
  </g>
</svg>
