<svg width="19" height="18" viewBox="0 0 19 18" fill="none" xmlns="http://www.w3.org/2000/svg">
<g clip-path="url(#clip0)">
<path d="M4.71875 9.00025C4.71875 8.10845 4.96446 7.27303 5.39132 6.5577V3.52344H2.35706C1.15278 5.08747 0.5 6.99361 0.5 9.00025C0.5 11.0069 1.15278 12.913 2.35706 14.4771H5.39132V11.4428C4.96446 10.7275 4.71875 9.89206 4.71875 9.00025Z" fill="#FBBD00"/>
<path d="M9.5 13.7826L7.39062 15.892L9.5 18.0014C11.5067 18.0014 13.4128 17.3486 14.9768 16.1443V13.1133H11.9458C11.2242 13.5417 10.3853 13.7826 9.5 13.7826Z" fill="#0F9D58"/>
<path d="M5.3912 11.4414L2.35693 14.4757C2.59536 14.7853 2.85499 15.0819 3.13593 15.3628C4.8358 17.0627 7.09589 17.9989 9.49988 17.9989V13.7801C7.75528 13.7801 6.22623 12.8407 5.3912 11.4414Z" fill="#31AA52"/>
<path d="M18.5 9.00033C18.5 8.45277 18.4504 7.90419 18.3526 7.36989L18.2735 6.9375H9.5V11.1563H13.7698C13.3552 11.9811 12.7176 12.654 11.9457 13.1123L14.9768 16.1433C15.2864 15.9049 15.583 15.6452 15.8639 15.3643C17.5638 13.6644 18.5 11.4043 18.5 9.00033Z" fill="#3C79E6"/>
<path d="M12.8809 5.61913L13.2537 5.992L16.2369 3.00892L15.864 2.63605C14.1641 0.936176 11.904 0 9.5 0L7.39062 2.10938L9.5 4.21875C10.7771 4.21875 11.9778 4.71607 12.8809 5.61913Z" fill="#CF2D48"/>
<path d="M9.49991 4.21875V0C7.09593 0 4.83584 0.936176 3.13593 2.63602C2.85499 2.91695 2.59536 3.21349 2.35693 3.52318L5.3912 6.55745C6.22627 5.15812 7.75532 4.21875 9.49991 4.21875Z" fill="#EB4132"/>
</g>
<defs>
<clipPath id="clip0">
<rect width="18" height="18" fill="white" transform="translate(0.5)"/>
</clipPath>
</defs>
</svg>
