<svg width="12" height="14" viewBox="0 0 12 14" fill="none" xmlns="http://www.w3.org/2000/svg">
<path d="M3.66667 0C2.8934 0.00092625 2.15208 0.308514 1.6053 0.855295C1.05851 1.40208 0.750926 2.1434 0.75 2.91667V13.4167C0.750082 13.5228 0.7791 13.6268 0.833931 13.7177C0.888761 13.8085 0.967328 13.8827 1.06117 13.9322C1.15502 13.9817 1.26058 14.0046 1.36651 13.9986C1.47244 13.9926 1.57472 13.9578 1.66233 13.8979L2.89083 13.0585L4.11933 13.8979C4.21639 13.9644 4.33128 13.9999 4.44892 13.9999C4.56655 13.9999 4.68144 13.9644 4.7785 13.8979L6.0035 13.0585L7.2285 13.8979C7.32562 13.9645 7.44062 14.0001 7.55838 14.0001C7.67613 14.0001 7.79113 13.9645 7.88825 13.8979L9.11325 13.0591L10.3383 13.8973C10.4258 13.957 10.528 13.9917 10.6338 13.9976C10.7396 14.0036 10.845 13.9807 10.9387 13.9312C11.0324 13.8818 11.1109 13.8078 11.1658 13.7172C11.2206 13.6265 11.2497 13.5226 11.25 13.4167V2.91667C11.2491 2.1434 10.9415 1.40208 10.3947 0.855295C9.84793 0.308514 9.1066 0.00092625 8.33333 0L3.66667 0ZM7.16667 8.16667H3.66667C3.51196 8.16667 3.36358 8.10521 3.25419 7.99581C3.14479 7.88642 3.08333 7.73804 3.08333 7.58333C3.08333 7.42862 3.14479 7.28025 3.25419 7.17085C3.36358 7.06146 3.51196 7 3.66667 7H7.16667C7.32138 7 7.46975 7.06146 7.57915 7.17085C7.68854 7.28025 7.75 7.42862 7.75 7.58333C7.75 7.73804 7.68854 7.88642 7.57915 7.99581C7.46975 8.10521 7.32138 8.16667 7.16667 8.16667ZM8.91667 5.25C8.91667 5.40471 8.85521 5.55308 8.74581 5.66248C8.63642 5.77187 8.48804 5.83333 8.33333 5.83333H3.66667C3.51196 5.83333 3.36358 5.77187 3.25419 5.66248C3.14479 5.55308 3.08333 5.40471 3.08333 5.25C3.08333 5.09529 3.14479 4.94692 3.25419 4.83752C3.36358 4.72812 3.51196 4.66667 3.66667 4.66667H8.33333C8.48804 4.66667 8.63642 4.72812 8.74581 4.83752C8.85521 4.94692 8.91667 5.09529 8.91667 5.25Z" fill="#64748B"/>
</svg>
