<svg width="8" height="8" viewBox="0 0 8 8" fill="none" xmlns="http://www.w3.org/2000/svg">
<g clip-path="url(#clip0_3430_12764)">
<path d="M4.67367 2.03599L3.26433 0.626989C3.17176 0.533768 3.06159 0.459863 2.94023 0.409565C2.81886 0.359267 2.68871 0.333578 2.55733 0.333989H0.333333C0.244928 0.333989 0.160143 0.369108 0.0976311 0.43162C0.035119 0.494132 0 0.578917 0 0.667323C0 0.755728 0.035119 0.840513 0.0976311 0.903025C0.160143 0.965537 0.244928 1.00066 0.333333 1.00066H2.55733C2.64569 1.00089 2.73038 1.03599 2.793 1.09832L3.69533 2.00066H1.66667C1.2248 2.00119 0.801186 2.17695 0.48874 2.4894C0.176294 2.80184 0.000529286 3.22546 0 3.66732L0 6.33399C0.000529286 6.77585 0.176294 7.19947 0.48874 7.51192C0.801186 7.82436 1.2248 8.00013 1.66667 8.00066H4.33333C4.7752 8.00013 5.19881 7.82436 5.51126 7.51192C5.82371 7.19947 5.99947 6.77585 6 6.33399V3.66732C5.99945 3.28456 5.86739 2.91361 5.62592 2.61662C5.38446 2.31963 5.04826 2.11464 4.67367 2.03599Z" fill="#64748B"/>
<path d="M7.63343 2.9856C7.52307 2.92967 7.39925 2.90577 7.276 2.91661C7.15275 2.92745 7.035 2.9726 6.9361 3.04693L6.66943 3.24693V6.75426L6.9361 6.95426C7.03515 7.02855 7.15292 7.07378 7.27623 7.0849C7.39954 7.09602 7.5235 7.07258 7.63424 7.01721C7.74498 6.96185 7.83811 6.87673 7.9032 6.77142C7.96829 6.6661 8.00276 6.54474 8.00276 6.42093V3.5816C8.0031 3.45765 7.96867 3.3361 7.90338 3.23075C7.8381 3.12539 7.74457 3.04046 7.63343 2.9856Z" fill="#64748B"/>
</g>
<defs>
<clipPath id="clip0_3430_12764">
<rect width="8" height="8" fill="white"/>
</clipPath>
</defs>
</svg>
