<svg width="16" height="16" viewBox="0 0 16 16" fill="none" xmlns="http://www.w3.org/2000/svg">
<path d="M12.6667 0.667969H3.33333C2.4496 0.669027 1.60237 1.02056 0.97748 1.64545C0.352588 2.27034 0.00105857 3.11757 0 4.0013L0 9.33463C0.00105857 10.2184 0.352588 11.0656 0.97748 11.6905C1.60237 12.3154 2.4496 12.6669 3.33333 12.668H7.33333V14.0013H4.66667C4.48986 14.0013 4.32029 14.0715 4.19526 14.1966C4.07024 14.3216 4 14.4912 4 14.668C4 14.8448 4.07024 15.0143 4.19526 15.1394C4.32029 15.2644 4.48986 15.3346 4.66667 15.3346H11.3333C11.5101 15.3346 11.6797 15.2644 11.8047 15.1394C11.9298 15.0143 12 14.8448 12 14.668C12 14.4912 11.9298 14.3216 11.8047 14.1966C11.6797 14.0715 11.5101 14.0013 11.3333 14.0013H8.66667V12.668H12.6667C13.5504 12.6669 14.3976 12.3154 15.0225 11.6905C15.6474 11.0656 15.9989 10.2184 16 9.33463V4.0013C15.9989 3.11757 15.6474 2.27034 15.0225 1.64545C14.3976 1.02056 13.5504 0.669027 12.6667 0.667969ZM14.6667 9.33463C14.6667 9.86507 14.456 10.3738 14.0809 10.7488C13.7058 11.1239 13.1971 11.3346 12.6667 11.3346H3.33333C2.8029 11.3346 2.29419 11.1239 1.91912 10.7488C1.54405 10.3738 1.33333 9.86507 1.33333 9.33463V4.0013C1.33333 3.47087 1.54405 2.96216 1.91912 2.58709C2.29419 2.21202 2.8029 2.0013 3.33333 2.0013H12.6667C13.1971 2.0013 13.7058 2.21202 14.0809 2.58709C14.456 2.96216 14.6667 3.47087 14.6667 4.0013V9.33463ZM13.3333 6.66797C13.3333 6.84478 13.2631 7.01435 13.1381 7.13937C13.013 7.2644 12.8435 7.33463 12.6667 7.33463H10.69L9.55667 9.03797C9.49558 9.12953 9.41277 9.20454 9.31564 9.2563C9.21851 9.30807 9.11007 9.33498 9 9.33463C8.986 9.33463 8.972 9.33463 8.95867 9.33463C8.84203 9.32745 8.72933 9.28973 8.63186 9.22526C8.53439 9.16079 8.45558 9.07183 8.40333 8.9673L6.91733 5.9933L6.22133 7.03797C6.16043 7.12925 6.07795 7.20408 5.98119 7.25583C5.88443 7.30758 5.77639 7.33465 5.66667 7.33463H3.33333C3.15652 7.33463 2.98695 7.2644 2.86193 7.13937C2.7369 7.01435 2.66667 6.84478 2.66667 6.66797C2.66667 6.49116 2.7369 6.32159 2.86193 6.19656C2.98695 6.07154 3.15652 6.0013 3.33333 6.0013H5.31L6.44333 4.29797C6.50749 4.19968 6.59677 4.12034 6.70192 4.06817C6.80707 4.01601 6.92426 3.99292 7.04133 4.0013C7.15797 4.00849 7.27067 4.0462 7.36814 4.11068C7.46561 4.17515 7.54442 4.26411 7.59667 4.36864L9.08267 7.3413L9.77867 6.29664C9.83972 6.2056 9.92227 6.13103 10.019 6.07952C10.1158 6.028 10.2237 6.00114 10.3333 6.0013H12.6667C12.8435 6.0013 13.013 6.07154 13.1381 6.19656C13.2631 6.32159 13.3333 6.49116 13.3333 6.66797Z" fill="#64748B"/>
</svg>
