<svg width="18" height="18" viewBox="0 0 18 18" fill="none" xmlns="http://www.w3.org/2000/svg">
<path d="M17.7803 0.21959C17.6397 0.0789866 17.449 0 17.2501 0C17.0512 0 16.8605 0.0789866 16.7198 0.21959L9.00008 7.93934L1.28033 0.21959C1.13969 0.0789866 0.948957 0 0.750084 0C0.551211 0 0.36048 0.0789866 0.219834 0.21959C0.0792307 0.360236 0.000244141 0.550967 0.000244141 0.74984C0.000244141 0.948713 0.0792307 1.13944 0.219834 1.28009L7.93958 8.99984L0.219834 16.7196C0.0792307 16.8602 0.000244141 17.051 0.000244141 17.2498C0.000244141 17.4487 0.0792307 17.6394 0.219834 17.7801C0.36048 17.9207 0.551211 17.9997 0.750084 17.9997C0.948957 17.9997 1.13969 17.9207 1.28033 17.7801L9.00008 10.0603L16.7198 17.7801C16.8605 17.9207 17.0512 17.9997 17.2501 17.9997C17.449 17.9997 17.6397 17.9207 17.7803 17.7801C17.9209 17.6394 17.9999 17.4487 17.9999 17.2498C17.9999 17.051 17.9209 16.8602 17.7803 16.7196L10.0606 8.99984L17.7803 1.28009C17.9209 1.13944 17.9999 0.948713 17.9999 0.74984C17.9999 0.550967 17.9209 0.360236 17.7803 0.21959Z" fill="#3B82F6"/>
</svg>
