<svg width="64" height="64" viewBox="0 0 64 64" fill="none" xmlns="http://www.w3.org/2000/svg">
<g clip-path="url(#clip0_118:456)">
<path d="M29.3333 63.9987C13.16 63.9987 0 50.8387 0 34.6654C0 18.492 13.16 5.33203 29.3333 5.33203C34.9573 5.33203 40.4293 6.9347 45.1573 9.96937C45.776 10.3667 45.9573 11.1907 45.56 11.812C45.16 12.4307 44.336 12.612 43.7173 12.2147C39.4187 9.4547 34.4453 7.9987 29.3333 7.9987C14.6293 7.9987 2.66667 19.9614 2.66667 34.6654C2.66667 49.3694 14.6293 61.332 29.3333 61.332C44.0373 61.332 56 49.3694 56 34.6654C56 33.7854 55.9573 32.9187 55.8747 32.0627C55.8027 31.3294 56.3387 30.676 57.072 30.6067C57.8187 30.5454 58.4587 31.0707 58.528 31.804C58.6187 32.7454 58.6667 33.7 58.6667 34.6654C58.6667 50.8387 45.5067 63.9987 29.3333 63.9987Z" fill="#14B8A6"/>
<path d="M33.333 40.6647C32.9917 40.6647 32.6504 40.5341 32.389 40.2754L20.389 28.2754C19.869 27.7554 19.869 26.9101 20.389 26.3901C20.909 25.8701 21.7544 25.8701 22.2744 26.3901L33.3304 37.4461L61.7224 9.05406C62.2424 8.53406 63.0877 8.53406 63.6077 9.05406C64.1277 9.57406 64.1277 10.4194 63.6077 10.9394L34.2744 40.2727C34.0157 40.5341 33.6744 40.6647 33.333 40.6647Z" fill="#14B8A6"/>
</g>
<defs>
<clipPath id="clip0_118:456">
<rect width="64" height="64" fill="white"/>
</clipPath>
</defs>
</svg>
