<svg width="9" height="18" viewBox="0 0 9 18" fill="none" xmlns="http://www.w3.org/2000/svg">
<path d="M0.750084 17.9986C0.601772 17.9986 0.456798 17.9546 0.333491 17.8721C0.210183 17.7897 0.114079 17.6726 0.057326 17.5356C0.000573482 17.3986 -0.014279 17.2478 0.0146467 17.1023C0.0435724 16.9569 0.114978 16.8232 0.219835 16.7183L6.34883 10.5893C6.77064 10.1674 7.0076 9.59522 7.0076 8.9986C7.0076 8.40198 6.77064 7.82978 6.34883 7.40785L0.219835 1.27885C0.0832161 1.13739 0.00761996 0.947943 0.00932878 0.751296C0.0110376 0.554648 0.0899145 0.366539 0.228971 0.227482C0.368027 0.0884264 0.556136 0.00954967 0.752783 0.00784085C0.949431 0.00613204 1.13888 0.0817278 1.28033 0.218346L7.40933 6.34735C8.11143 7.05106 8.50573 8.00453 8.50573 8.9986C8.50573 9.99266 8.11143 10.9461 7.40933 11.6498L1.28033 17.7788C1.13971 17.9195 0.948981 17.9986 0.750084 17.9986Z" fill="#0EA5E9"/>
</svg>
