<svg width="9" height="19" viewBox="0 0 9 19" fill="none" xmlns="http://www.w3.org/2000/svg">
<path d="M7.87878 18.4986C7.67989 18.4986 7.48915 18.4195 7.34853 18.2788L1.21953 12.1498C0.516515 11.4466 0.121582 10.493 0.121582 9.4986C0.121582 8.50423 0.516515 7.55058 1.21953 6.84735L7.34853 0.718346C7.48998 0.581728 7.67944 0.506132 7.87608 0.507841C8.07273 0.50955 8.26084 0.588426 8.3999 0.727482C8.53895 0.866539 8.61783 1.05465 8.61954 1.2513C8.62125 1.44794 8.54565 1.63739 8.40903 1.77885L2.28003 7.90785C1.85822 8.32978 1.62126 8.90198 1.62126 9.4986C1.62126 10.0952 1.85822 10.6674 2.28003 11.0893L8.40903 17.2183C8.51389 17.3232 8.58529 17.4569 8.61422 17.6023C8.64315 17.7478 8.62829 17.8986 8.57154 18.0356C8.51479 18.1726 8.41868 18.2897 8.29538 18.3721C8.17207 18.4546 8.02709 18.4986 7.87878 18.4986Z" fill="#3B82F6"/>
</svg>
