<svg width="16" height="16" viewBox="0 0 16 16" fill="none" xmlns="http://www.w3.org/2000/svg">
<path d="M15.9166 5.02931C15.7306 4.37617 15.2953 3.82233 14.7046 3.48731L9.78861 1.14531C9.25715 0.827857 8.65071 0.657743 8.03168 0.65247C7.41265 0.647197 6.8034 0.806956 6.26661 1.11531L1.29527 3.48731C1.27661 3.49664 1.25727 3.50664 1.23927 3.51731C0.858071 3.73527 0.542139 4.05127 0.324261 4.43252C0.106382 4.81377 -0.00550544 5.24638 0.000208377 5.68546C0.00592219 6.12454 0.129029 6.55409 0.356755 6.92955C0.584481 7.305 0.908528 7.61267 1.29527 7.82064L2.66661 8.47397V11.7406C2.667 12.4523 2.89485 13.1453 3.31689 13.7183C3.73893 14.2913 4.33308 14.7145 5.01261 14.926C5.9832 15.2068 6.98961 15.3442 7.99994 15.334C9.01011 15.3453 10.0165 15.209 10.9873 14.9293C11.6668 14.7178 12.2609 14.2947 12.683 13.7216C13.105 13.1486 13.3329 12.4557 13.3333 11.744V8.47264L14.6666 7.83531V13.334C14.6666 13.5108 14.7368 13.6804 14.8619 13.8054C14.9869 13.9304 15.1565 14.0006 15.3333 14.0006C15.5101 14.0006 15.6797 13.9304 15.8047 13.8054C15.9297 13.6804 15.9999 13.5108 15.9999 13.334V5.33397C15.9978 5.22709 15.9691 5.12241 15.9166 5.02931ZM11.9999 11.744C12.0001 12.1697 11.8644 12.5844 11.6126 12.9277C11.3608 13.2709 11.0061 13.5249 10.5999 13.6526C9.75474 13.8941 8.8789 14.0114 7.99994 14.0006C7.12098 14.0114 6.24514 13.8941 5.39994 13.6526C4.99382 13.5249 4.63905 13.2709 4.38726 12.9277C4.13546 12.5844 3.99977 12.1697 3.99994 11.744V9.10931L6.21127 10.1626C6.75689 10.4866 7.38004 10.6569 8.01461 10.6553C8.61862 10.6596 9.21244 10.4997 9.73261 10.1926L11.9999 9.10931V11.744ZM14.1333 6.61731L9.10527 9.01731C8.76123 9.21764 8.3692 9.32067 7.97112 9.31539C7.57304 9.3101 7.18388 9.1967 6.84527 8.98731L1.92594 6.64731C1.74887 6.55183 1.60056 6.41073 1.49638 6.23864C1.39219 6.06654 1.33592 5.86972 1.33341 5.66857C1.33089 5.46741 1.38222 5.26924 1.48207 5.0946C1.58191 4.91995 1.72665 4.77519 1.90127 4.67531L6.89794 2.28864C7.24213 2.08873 7.6341 1.98594 8.03209 1.99123C8.43008 1.99651 8.81919 2.10967 9.15794 2.31864L14.0739 4.66064C14.2515 4.75926 14.3999 4.90308 14.504 5.07753C14.6081 5.25198 14.6642 5.45085 14.6666 5.65397C14.6669 5.84664 14.6181 6.03621 14.5248 6.20476C14.4315 6.37332 14.2967 6.51531 14.1333 6.61731Z" fill="#64748B"/>
</svg>
