<svg width="1186" height="384" viewBox="0 0 1186 384" fill="none" xmlns="http://www.w3.org/2000/svg">
<path d="M0.520108 205.488C-0.292173 194.789 -0.138256 184.039 0.980069 173.368C2.71105 155.527 6.95641 138.02 13.5901 121.368C22.5273 99.3023 35.4035 79.046 51.5901 61.5883C76.2501 34.6583 106.49 16.9282 141.59 7.19818C155.837 3.19815 170.511 0.918606 185.3 0.408204C230.469 -0.791002 274.638 13.8196 310.182 41.7172C345.726 69.6148 370.413 109.048 379.98 153.208C382.175 163.573 383.417 174.117 383.69 184.708C384.252 208.481 380.661 232.17 373.08 254.708C364.558 280.373 350.356 303.784 331.53 323.198C315.594 339.828 297.113 353.816 276.78 364.638C263.295 371.743 248.857 376.869 233.91 379.858C221.059 382.487 207.968 383.768 194.85 383.678C173.58 383.598 152.7 380.938 132.38 374.408C105.51 365.801 80.983 351.121 60.7 331.508C47.7 319.038 35.16 306.038 22.46 293.238C20.46 291.238 18.75 289.058 16.94 286.928C16.4262 286.313 15.9834 285.642 15.6201 284.928C15.3565 284.531 15.2102 284.068 15.1983 283.592C15.1864 283.115 15.3092 282.645 15.5527 282.236C15.7962 281.826 16.1503 281.494 16.5744 281.276C16.9986 281.059 17.4754 280.966 17.95 281.008C20.9781 281.081 23.9011 282.133 26.2801 284.008C29.4901 286.258 32.6101 288.628 35.7901 290.918C45.0101 297.538 54.0601 304.418 63.5001 310.708C78.9601 321.028 96.09 327.508 114.21 331.438C126.568 334.073 139.14 335.582 151.77 335.948C158.996 336.209 166.177 334.717 172.7 331.598C177.08 329.508 180.08 326.118 180.7 321.118C181.27 316.788 179.7 313.028 177.15 309.628C173.02 304.118 167.86 299.628 162.71 295.108C158.84 291.708 154.9 288.358 151.28 284.698C148.202 281.704 145.799 278.087 144.23 274.09C142.661 270.093 141.962 265.807 142.18 261.518C142.33 258.586 143.255 255.746 144.86 253.288C145.269 252.647 145.771 252.071 146.35 251.578C146.533 251.373 146.76 251.212 147.014 251.108C147.268 251.003 147.542 250.957 147.816 250.973C148.09 250.99 148.357 251.068 148.597 251.202C148.837 251.336 149.043 251.523 149.2 251.748C149.555 252.125 149.87 252.537 150.14 252.978C156.287 263.014 164.655 271.505 174.6 277.798C181.39 282.208 188.5 286.138 195.51 290.228C206.13 296.428 216.3 303.228 225.37 311.628C232.426 318.088 238.593 325.456 243.71 333.538C246.06 337.288 249.43 338.378 253.4 336.538C268.168 330.049 281.936 321.49 294.29 311.118C313.29 294.878 327.29 274.988 336.83 251.908C347.486 226.221 351.064 198.147 347.19 170.608C343.778 145.539 334.359 121.665 319.733 101.02C305.107 80.3755 285.709 63.5711 263.19 52.0382C233.329 36.3589 199.432 30.0541 165.93 33.9482C132.83 37.8782 103.5 50.6582 77.6001 71.5282C54.7701 89.9382 36.2001 111.858 22.6001 137.898C13.7427 154.972 7.20811 173.153 3.17001 191.958C2.26001 196.128 1.54006 200.348 0.720059 204.538C0.690059 204.888 0.600108 205.188 0.520108 205.488Z" fill="#1D4ED8"/>
<path d="M34.3799 281.109C36.9099 279.219 39.3799 277.309 41.8899 275.509C51.6099 268.509 61.4098 261.709 71.0598 254.679C81.4498 247.109 90.9199 238.569 98.5299 228.099C105.394 218.421 110.786 207.779 114.53 196.519C117.783 186.967 120.356 177.195 122.23 167.279C122.3 166.929 122.41 166.579 122.54 166.039C122.86 166.499 123.1 166.839 123.33 167.189C129.98 177.189 138.91 184.189 150.6 187.189C161.55 189.979 172.06 188.459 181.6 182.189C191.51 175.659 194.38 164.869 191.1 154.529C185.94 138.269 180.51 122.089 175.18 105.889C174.965 105.205 174.659 104.552 174.27 103.949C173.933 103.373 173.423 102.918 172.813 102.649C172.202 102.38 171.522 102.31 170.87 102.449C170.217 102.599 169.633 102.963 169.21 103.483C168.788 104.003 168.552 104.65 168.54 105.319C168.462 106.704 168.587 108.091 168.91 109.439C173.18 125.589 177.53 141.719 181.82 157.859C183.82 165.419 181.08 171.559 174.14 175.209C169.189 177.685 163.658 178.767 158.14 178.34C149.88 177.96 143.28 174.069 137.49 168.569C130.869 162.464 126.679 154.171 125.69 145.219C125.388 141.72 125.361 138.203 125.61 134.699C125.835 127.948 126.996 121.261 129.06 114.829C132.33 104.899 138.19 96.6295 145.24 89.0695C153.12 80.6195 162.41 74.3294 173.47 70.9994C196.97 63.9194 218.47 68.1095 238.05 82.8395C244.39 87.6195 249.44 93.6694 254.58 99.6394C256.925 102.415 259.494 104.993 262.26 107.349C266.37 110.779 271.43 112.209 276.64 112.719C282.36 113.266 288.1 113.599 293.86 113.719C303.42 113.879 310.03 119.539 311.05 129.079C311.94 137.253 310.931 145.521 308.1 153.239C304.96 161.919 298.61 167.859 290.62 172.019C283.12 175.929 275.43 179.459 267.82 183.149C261.25 186.339 254.65 189.459 248.12 192.739C241.59 196.019 236.29 200.739 233.44 207.739C231.776 212.001 231.202 216.61 231.77 221.149C232.24 225.709 232.68 230.289 233.06 234.859C233.55 240.859 234.06 246.859 234.4 252.859C234.71 257.639 234.94 262.429 235.05 267.219C235.23 275.569 235.39 283.929 235.39 292.279C235.39 298.459 235.12 304.649 234.96 311.099C233.68 309.859 232.57 308.769 231.43 307.699C221.75 298.509 210.82 291.029 199.33 284.329C192.53 280.329 185.64 276.569 179.03 272.329C169.628 266.46 161.714 258.491 155.91 249.049C153.99 245.869 151.23 243.839 147.26 243.979C145.957 244.035 144.682 244.368 143.519 244.958C142.356 245.548 141.334 246.381 140.52 247.399C136.955 251.577 135.032 256.908 135.11 262.399C135 267.449 135.929 272.468 137.841 277.144C139.752 281.819 142.604 286.052 146.22 289.579C150.73 294.099 155.76 298.099 160.41 302.479C164.04 305.899 167.5 309.479 170.91 313.139C171.924 314.326 172.726 315.68 173.28 317.139C173.828 318.315 173.949 319.646 173.622 320.901C173.296 322.157 172.542 323.26 171.49 324.019C169.32 325.849 166.63 326.539 164 327.349C158.09 329.169 152 329.229 146 328.689C140.67 328.209 135.33 327.779 130 327.059C124.9 326.359 119.85 325.329 114.8 324.399C114.272 324.225 113.773 323.972 113.32 323.649C111.55 322.6 109.716 321.662 107.83 320.839C106.789 320.602 105.699 320.703 104.72 321.129C104.041 321.404 103.287 321.433 102.59 321.209C87.9104 316.806 74.0579 310.011 61.5898 301.099C52.5898 294.639 43.6999 288.099 34.7699 281.519C34.631 281.391 34.5007 281.254 34.3799 281.109Z" fill="#1D4ED8"/>
<path d="M487.98 84.0085C487.98 78.386 490.214 72.9937 494.189 69.0179C498.165 65.0422 503.557 62.8086 509.18 62.8086C514.803 62.8086 520.195 65.0422 524.171 69.0179C528.146 72.9937 530.38 78.386 530.38 84.0085V278.009H606.2C608.779 278.008 611.332 278.522 613.71 279.519C616.088 280.516 618.243 281.977 620.05 283.817C621.857 285.656 623.28 287.838 624.234 290.233C625.189 292.629 625.656 295.19 625.61 297.769C625.645 302.96 623.622 307.955 619.985 311.659C616.348 315.364 611.391 317.478 606.2 317.539H509.2C503.6 317.466 498.25 315.209 494.29 311.249C490.329 307.289 488.073 301.939 488 296.339L487.98 84.0085Z" fill="#1D4ED8"/>
<path d="M624.57 150.852C624.57 145.611 626.652 140.585 630.358 136.879C634.064 133.174 639.09 131.092 644.33 131.092C649.571 131.092 654.597 133.174 658.303 136.879C662.008 140.585 664.09 145.611 664.09 150.852V238.532C664.09 268.722 682.42 284.532 705.42 284.532C728.42 284.532 746.74 268.722 746.74 238.532V150.852C746.704 148.246 747.19 145.659 748.171 143.245C749.152 140.83 750.607 138.637 752.45 136.795C754.293 134.952 756.488 133.499 758.903 132.519C761.318 131.539 763.904 131.054 766.51 131.092C769.107 131.084 771.68 131.59 774.081 132.58C776.482 133.57 778.664 135.025 780.5 136.862C782.337 138.698 783.792 140.88 784.782 143.281C785.772 145.682 786.278 148.255 786.27 150.852V237.092C786.27 288.482 750.7 321.182 705.42 321.182C660.14 321.182 624.57 288.482 624.57 237.092V150.852Z" fill="#1D4ED8"/>
<path d="M813.98 214.451C813.98 163.071 849.56 130.73 894.83 130.73C940.1 130.73 975.69 163.071 975.69 214.451V300.701C975.711 305.986 973.64 311.065 969.928 314.828C966.216 318.59 961.165 320.73 955.88 320.781C953.255 320.778 950.657 320.254 948.237 319.237C945.817 318.221 943.624 316.733 941.785 314.86C939.946 312.988 938.498 310.768 937.525 308.33C936.553 305.892 936.075 303.285 936.12 300.661V212.98C936.12 183.15 917.79 167.341 894.79 167.341C871.79 167.341 853.47 183.15 853.47 212.98V300.661C853.529 303.294 853.062 305.912 852.095 308.362C851.128 310.811 849.682 313.043 847.841 314.927C846 316.81 843.801 318.306 841.373 319.327C838.946 320.349 836.339 320.875 833.705 320.875C831.072 320.875 828.464 320.349 826.037 319.327C823.61 318.306 821.41 316.81 819.569 314.927C817.728 313.043 816.282 310.811 815.315 308.362C814.348 305.912 813.881 303.294 813.94 300.661L813.98 214.451Z" fill="#1D4ED8"/>
<path d="M1146.34 298.901C1129.87 313.405 1108.64 321.336 1086.69 321.181C1034.94 321.181 995.77 279.181 995.77 225.951C995.77 172.721 1034.98 130.781 1086.69 130.781C1108.71 130.584 1130 138.665 1146.34 153.421V150.901C1146.34 145.66 1148.42 140.634 1152.13 136.928C1155.83 133.223 1160.86 131.141 1166.1 131.141C1171.34 131.141 1176.37 133.223 1180.07 136.928C1183.78 140.634 1185.86 145.66 1185.86 150.901V300.751C1185.86 303.346 1185.35 305.915 1184.36 308.313C1183.36 310.71 1181.91 312.888 1180.07 314.723C1178.24 316.558 1176.06 318.014 1173.66 319.007C1171.26 320 1168.7 320.511 1166.1 320.511C1163.51 320.511 1160.94 320 1158.54 319.007C1156.14 318.014 1153.96 316.558 1152.13 314.723C1150.29 312.888 1148.84 310.71 1147.84 308.313C1146.85 305.915 1146.34 303.346 1146.34 300.751V298.901ZM1146.34 225.951V223.441C1144.9 191.441 1121.18 167.381 1091 167.381C1060.09 167.381 1035.66 192.541 1035.66 225.951C1035.66 259.361 1060.09 284.531 1091 284.531C1121.91 284.531 1146.34 259.371 1146.34 225.951Z" fill="#1D4ED8"/>
</svg>
