<svg width="199" height="48" viewBox="0 0 199 48" fill="none" xmlns="http://www.w3.org/2000/svg">
<path d="M30.8028 12.399H24.3379C23.8926 12.399 23.4803 12.1516 23.233 11.7889C21.9301 9.94207 19.7861 8.9692 17.0319 8.9692C11.7875 8.9692 8.30766 12.6958 8.30766 18.5165C8.30766 24.7165 11.837 28.3441 17.7081 28.3441C20.9735 28.3441 23.4309 26.959 24.9151 24.4527C25.4429 23.5622 24.8162 22.4245 23.7772 22.4245H16.7846C16.0589 22.4245 15.4652 21.8309 15.4652 21.1053V17.7415C15.4652 17.016 16.0589 16.4224 16.7846 16.4224H31.8913C32.6169 16.4224 33.2106 17.016 33.2106 17.7415V23.7931C33.2106 23.9415 33.1941 24.0734 33.1447 24.2218C31.4955 29.4984 26.6303 34.709 19.011 35.4675C7.45007 36.6053 -1.37317 27.3383 0.177081 15.8123C1.31503 7.25432 7.92834 1.43359 17.0319 1.43359C24.3214 1.43359 29.7803 4.8139 32.0562 10.5852C32.386 11.4591 31.7428 12.399 30.8028 12.399Z" fill="#2563EB"/>
<path d="M49.5708 35.6808C41.7536 35.6808 36.1133 30.4372 36.1133 21.9947C36.1133 13.5522 41.6546 8.30859 49.5708 8.30859C57.355 8.30859 62.8304 13.4697 62.8304 21.566C62.8304 21.9452 62.8139 22.341 62.7974 22.7532C62.7644 23.4293 62.1707 23.9569 61.478 23.9569H45.8271C44.9035 23.9569 44.2768 24.8803 44.5737 25.7378C45.3323 27.9968 47.1465 29.0521 49.2739 29.0521C51.2365 29.0521 52.4734 28.2112 53.199 27.0569C53.4299 26.6942 53.8422 26.4798 54.2875 26.4798H60.3566C61.2966 26.4798 61.9563 27.4362 61.5935 28.3101C59.7629 32.5808 55.409 35.6808 49.5708 35.6808ZM46.091 19.4224H52.9187C53.8422 19.4224 54.5184 18.499 54.1721 17.6415C53.4299 15.8277 51.5828 14.8384 49.4718 14.8384C47.4598 14.8384 45.8106 15.7618 44.9035 17.4602C44.4418 18.3506 45.085 19.4224 46.091 19.4224Z" fill="#2563EB"/>
<path d="M67.1018 15.4488H66.5081C65.7824 15.4488 65.1887 14.8552 65.1887 14.1297V10.0073C65.1887 9.2818 65.7824 8.68819 66.5081 8.68819H67.1018C67.8274 8.68819 68.4212 8.09457 68.4212 7.36904V3.51055C68.4212 2.78502 69.0149 2.19141 69.7405 2.19141H75.2489C75.9745 2.19141 76.5682 2.78502 76.5682 3.51055V7.35255C76.5682 8.07808 77.1619 8.6717 77.8876 8.6717H80.5923C81.3179 8.6717 81.9117 9.26531 81.9117 9.99084V14.1132C81.9117 14.8387 81.3179 15.4323 80.5923 15.4323H77.8876C77.1619 15.4323 76.5682 16.0259 76.5682 16.7515V26.1174C76.5682 27.7003 77.2444 28.3599 79.042 28.3599H80.6253C81.3509 28.3599 81.9446 28.9535 81.9446 29.6791V33.9498C81.9446 34.6753 81.3509 35.2689 80.6253 35.2689H77.7886C72.2473 35.2689 68.3882 32.9274 68.3882 26.0184V16.7515C68.4212 16.0424 67.8274 15.4488 67.1018 15.4488Z" fill="#2563EB"/>
<path d="M139.156 35.6847C131.339 35.6847 125.698 30.4411 125.698 21.9986C125.698 13.5561 131.24 8.3125 139.156 8.3125C146.94 8.3125 152.416 13.4736 152.416 21.5699C152.416 21.9491 152.399 22.3449 152.383 22.7571C152.35 23.4332 151.756 23.9608 151.063 23.9608H135.412C134.489 23.9608 133.862 24.8842 134.159 25.7417C134.918 28.0007 136.732 29.056 138.859 29.056C140.822 29.056 142.059 28.2151 142.784 27.0608C143.015 26.6981 143.427 26.4837 143.873 26.4837H149.942C150.882 26.4837 151.542 27.4401 151.179 28.314C149.348 32.5847 144.994 35.6847 139.156 35.6847ZM135.676 19.4263H142.504C143.427 19.4263 144.104 18.5029 143.757 17.6454C143.015 15.8316 141.168 14.8423 139.074 14.8423C137.062 14.8423 135.412 15.7657 134.505 17.4641C134.027 18.3545 134.687 19.4263 135.676 19.4263Z" fill="#2563EB"/>
<path d="M158.039 0H163.547C164.273 0 164.867 0.593615 164.867 1.31914V33.9844C164.867 34.71 164.273 35.3036 163.547 35.3036H158.039C157.313 35.3036 156.719 34.71 156.719 33.9844V1.31914C156.719 0.593615 157.313 0 158.039 0Z" fill="#2563EB"/>
<path d="M187.164 8.29297C193.695 8.29297 198.906 13.5366 198.906 21.9461C198.906 30.3556 193.711 35.6817 187.164 35.6817C184.657 35.6817 182.612 34.9232 181.062 33.7854C180.188 33.1423 178.951 33.7524 178.951 34.8407V46.68C178.951 47.4056 178.357 47.9992 177.631 47.9992H172.123C171.397 47.9992 170.804 47.4056 170.804 46.68V10.0079C170.804 9.28233 171.397 8.68871 172.123 8.68871H177.631C178.357 8.68871 178.951 9.28233 178.951 10.0079V12.4483C180.435 10.1068 183.255 8.29297 187.164 8.29297ZM184.739 15.4163C181.688 15.4163 178.918 17.7578 178.918 21.9956C178.918 26.2333 181.688 28.5748 184.739 28.5748C187.84 28.5748 190.611 26.1839 190.611 21.9461C190.611 17.7084 187.84 15.4163 184.739 15.4163Z" fill="#2563EB"/>
<path fill-rule="evenodd" clip-rule="evenodd" d="M105.116 15.8292C107.854 15.8127 110.064 12.4983 110.047 8.42546C110.031 4.33612 107.804 1.03826 105.083 1.05475C102.346 1.05475 100.136 4.3691 100.152 8.45844C100.169 12.5313 102.395 15.8292 105.116 15.8292Z" fill="#2563EB"/>
<path fill-rule="evenodd" clip-rule="evenodd" d="M119.513 9.28132C117.089 8.48984 114.17 10.7818 112.999 14.393C111.812 18.0206 112.818 21.5823 115.242 22.3738C117.666 23.1653 120.569 20.8733 121.756 17.2621C122.927 13.6345 121.938 10.0563 119.513 9.28132Z" fill="#2563EB"/>
<path fill-rule="evenodd" clip-rule="evenodd" d="M108.414 20.7914C106.172 19.2414 103.137 19.2414 100.894 20.7914C98.074 22.7371 95.4847 26.0845 94.792 28.7722C94.0004 31.8722 94.5941 35.2195 98.4863 35.3515C100.531 35.4174 103.252 34.1972 104.654 34.1972C106.056 34.1972 108.777 35.4174 110.822 35.3515C114.698 35.2195 115.308 31.8722 114.517 28.7722C113.824 26.101 111.235 22.7371 108.414 20.7914Z" fill="#2563EB"/>
<path fill-rule="evenodd" clip-rule="evenodd" d="M96.87 14.393C95.6826 10.7818 92.7635 8.48984 90.3556 9.28132C87.9313 10.0728 86.9253 13.6345 88.1127 17.2621C89.3001 20.8733 92.2027 23.1653 94.6271 22.3738C97.0514 21.5823 98.0574 18.0042 96.87 14.393Z" fill="#2563EB"/>
</svg>
