<svg width="168" height="40" viewBox="0 0 168 40" fill="none" xmlns="http://www.w3.org/2000/svg">
<path d="M27.3248 10.1051H20.8606C19.5735 7.74321 17.2472 6.49559 14.2821 6.49559C9.26715 6.49559 5.77767 10.067 5.77767 15.6384C5.77767 21.3337 9.30529 24.8575 14.53 24.8575C18.868 24.8575 21.6329 22.3718 22.4719 18.4003H12.8424V14.1146H28.0112V19.0099C26.8862 24.7051 21.795 29.9146 14.3298 29.9146C6.18764 29.9146 0 24.0194 0 15.648C0 7.26702 6.1781 1.3337 14.2821 1.3337C20.5365 1.32418 25.5133 4.4956 27.3248 10.1051Z" fill="#3B83F6"/>
<path d="M41.8834 30.0278C35.4193 30.0278 30.7285 25.5421 30.7285 18.5611C30.7285 11.5421 35.3049 7.09448 41.8834 7.09448C48.2999 7.09448 52.8381 11.4659 52.8381 18.0754C52.8381 18.7992 52.8 19.523 52.6761 20.2373H36.4204C36.6969 23.523 38.9469 25.3706 41.7595 25.3706C44.1716 25.3706 45.4873 24.1706 46.2119 22.6849H52.2756C51.0743 26.7802 47.3846 30.0278 41.8834 30.0278ZM36.4681 16.4754H47.0223C46.946 13.5516 44.6102 11.704 41.7213 11.704C39.0423 11.704 36.9162 13.4278 36.4681 16.4754Z" fill="#3B83F6"/>
<path d="M57.8155 12.0671H55.165V7.45763H57.8155V1.9624H63.4692V7.45763H68.446V12.0671H63.4692V22.81C63.4692 24.2957 64.0699 24.9338 65.8337 24.9338H68.446V29.6671H64.9184C60.6662 29.6671 57.8155 27.8671 57.8155 22.7719V12.0671V12.0671Z" fill="#3B83F6"/>
<path d="M70.7812 1.64801H73.794L80.2105 26.2194L87.3897 1.64801H90.5168L97.4958 26.2194L103.96 1.64801H106.973L99.0308 29.667H95.9036L88.8388 5.77181L81.612 29.667L78.5611 29.7051L70.7812 1.64801Z" fill="#3B83F6"/>
<path d="M120.74 29.9812C114.524 29.9812 109.985 25.6479 109.985 18.7145C109.985 11.7431 114.438 7.44788 120.74 7.44788C127.156 7.44788 131.094 12.0193 131.094 17.5907C131.094 18.4764 131.094 19.0383 131.018 19.7907H112.836C113.074 24.924 116.65 27.6098 120.74 27.6098C124.468 27.6098 127.004 25.6479 127.805 22.7145H130.77C129.769 26.8574 126.241 29.9812 120.74 29.9812ZM112.836 17.5241H128.243C128.367 12.4288 124.668 9.86692 120.616 9.86692C116.65 9.86692 113.16 12.4288 112.836 17.5241Z" fill="#3B83F6"/>
<path d="M136.231 0H139.044V29.6666H136.231V0Z" fill="#3B83F6"/>
<path d="M156.894 7.45721C162.872 7.45721 167.325 11.8286 167.325 18.6762C167.325 25.5239 162.872 29.981 156.894 29.981C152.518 29.981 149.467 27.581 148.19 24.8477V40H145.425V7.78102H148.19V12.5905C149.477 9.81912 152.518 7.45721 156.894 7.45721ZM156.332 9.90483C151.879 9.90483 148.19 13.2763 148.19 18.7239C148.19 24.1715 151.879 27.5429 156.332 27.5429C160.946 27.5429 164.474 24.2191 164.474 18.6858C164.483 13.1143 160.946 9.90483 156.332 9.90483Z" fill="#3B83F6"/>
</svg>
