<svg width="40" height="40" viewBox="0 0 40 40" fill="none" xmlns="http://www.w3.org/2000/svg">
<path d="M33.3333 0H6.66667C4.89856 0 3.20286 0.702379 1.95262 1.95262C0.702379 3.20286 0 4.89856 0 6.66667L0 26.6667C0 28.4348 0.702379 30.1305 1.95262 31.3807C3.20286 32.631 4.89856 33.3333 6.66667 33.3333H11.5L18.9183 39.605C19.2193 39.8597 19.6008 39.9994 19.995 39.9994C20.3892 39.9994 20.7707 39.8597 21.0717 39.605L28.5 33.3333H33.3333C35.1014 33.3333 36.7971 32.631 38.0474 31.3807C39.2976 30.1305 40 28.4348 40 26.6667V6.66667C40 4.89856 39.2976 3.20286 38.0474 1.95262C36.7971 0.702379 35.1014 0 33.3333 0V0ZM11.6667 8.33333H20C20.442 8.33333 20.8659 8.50893 21.1785 8.82149C21.4911 9.13405 21.6667 9.55797 21.6667 10C21.6667 10.442 21.4911 10.8659 21.1785 11.1785C20.8659 11.4911 20.442 11.6667 20 11.6667H11.6667C11.2246 11.6667 10.8007 11.4911 10.4882 11.1785C10.1756 10.8659 10 10.442 10 10C10 9.55797 10.1756 9.13405 10.4882 8.82149C10.8007 8.50893 11.2246 8.33333 11.6667 8.33333ZM28.3333 25H11.6667C11.2246 25 10.8007 24.8244 10.4882 24.5118C10.1756 24.1993 10 23.7754 10 23.3333C10 22.8913 10.1756 22.4674 10.4882 22.1548C10.8007 21.8423 11.2246 21.6667 11.6667 21.6667H28.3333C28.7754 21.6667 29.1993 21.8423 29.5118 22.1548C29.8244 22.4674 30 22.8913 30 23.3333C30 23.7754 29.8244 24.1993 29.5118 24.5118C29.1993 24.8244 28.7754 25 28.3333 25ZM28.3333 18.3333H11.6667C11.2246 18.3333 10.8007 18.1577 10.4882 17.8452C10.1756 17.5326 10 17.1087 10 16.6667C10 16.2246 10.1756 15.8007 10.4882 15.4882C10.8007 15.1756 11.2246 15 11.6667 15H28.3333C28.7754 15 29.1993 15.1756 29.5118 15.4882C29.8244 15.8007 30 16.2246 30 16.6667C30 17.1087 29.8244 17.5326 29.5118 17.8452C29.1993 18.1577 28.7754 18.3333 28.3333 18.3333Z" fill="#0EA5E9"/>
</svg>
