<svg width="14" height="16" viewBox="0 0 14 16" fill="none" xmlns="http://www.w3.org/2000/svg">
<path d="M10.3335 9.33335C10.3335 9.51016 10.2633 9.67973 10.1382 9.80475C10.0132 9.92978 9.84364 10 9.66683 10H4.3335C4.15669 10 3.98712 9.92978 3.86209 9.80475C3.73707 9.67973 3.66683 9.51016 3.66683 9.33335C3.66683 9.15654 3.73707 8.98697 3.86209 8.86194C3.98712 8.73692 4.15669 8.66668 4.3335 8.66668H9.66683C9.84364 8.66668 10.0132 8.73692 10.1382 8.86194C10.2633 8.98697 10.3335 9.15654 10.3335 9.33335ZM7.66683 11.3333H4.3335C4.15669 11.3333 3.98712 11.4036 3.86209 11.5286C3.73707 11.6536 3.66683 11.8232 3.66683 12C3.66683 12.1768 3.73707 12.3464 3.86209 12.4714C3.98712 12.5964 4.15669 12.6667 4.3335 12.6667H7.66683C7.84364 12.6667 8.01321 12.5964 8.13823 12.4714C8.26326 12.3464 8.3335 12.1768 8.3335 12C8.3335 11.8232 8.26326 11.6536 8.13823 11.5286C8.01321 11.4036 7.84364 11.3333 7.66683 11.3333ZM13.6668 6.99002V12.6667C13.6658 13.5504 13.3142 14.3976 12.6894 15.0225C12.0645 15.6474 11.2172 15.999 10.3335 16H3.66683C2.7831 15.999 1.93587 15.6474 1.31098 15.0225C0.686084 14.3976 0.334555 13.5504 0.333496 12.6667V3.33335C0.334555 2.44962 0.686084 1.60239 1.31098 0.977495C1.93587 0.352603 2.7831 0.00107394 3.66683 1.53658e-05H6.67683C7.28991 -0.00156258 7.89722 0.118407 8.46364 0.352988C9.03007 0.587569 9.54438 0.932107 9.97683 1.36668L12.2995 3.69068C12.7343 4.12284 13.0791 4.63699 13.3138 5.20333C13.5485 5.76968 13.6685 6.37696 13.6668 6.99002ZM9.03416 2.30935C8.82435 2.10612 8.58879 1.9313 8.3335 1.78935V4.66668C8.3335 4.84349 8.40373 5.01306 8.52876 5.13809C8.65378 5.26311 8.82335 5.33335 9.00016 5.33335H11.8775C11.7355 5.07814 11.5604 4.84278 11.3568 4.63335L9.03416 2.30935ZM12.3335 6.99002C12.3335 6.88001 12.3122 6.77468 12.3022 6.66668H9.00016C8.46973 6.66668 7.96102 6.45597 7.58595 6.0809C7.21088 5.70582 7.00016 5.19711 7.00016 4.66668V1.36468C6.89216 1.35468 6.78616 1.33335 6.67683 1.33335H3.66683C3.1364 1.33335 2.62769 1.54406 2.25262 1.91914C1.87754 2.29421 1.66683 2.80292 1.66683 3.33335V12.6667C1.66683 13.1971 1.87754 13.7058 2.25262 14.0809C2.62769 14.456 3.1364 14.6667 3.66683 14.6667H10.3335C10.8639 14.6667 11.3726 14.456 11.7477 14.0809C12.1228 13.7058 12.3335 13.1971 12.3335 12.6667V6.99002Z" fill="#64748B"/>
</svg>
