<svg width="16" height="16" viewBox="0 0 16 16" fill="none" xmlns="http://www.w3.org/2000/svg">
<path d="M5.44288 5.33278C5.0567 5.32674 4.68462 5.18676 4.39021 4.93678C3.77612 4.37359 3.40408 3.5944 3.35221 2.76278C3.19021 1.10078 4.09688 0.120113 5.07621 0.0107799C5.31218 -0.0153824 5.551 0.00619406 5.77845 0.0742252C6.00591 0.142256 6.21736 0.255352 6.40021 0.40678C6.67299 0.652669 6.89447 0.950064 7.0519 1.28186C7.20933 1.61365 7.29961 1.9733 7.31754 2.34011C7.46688 3.88945 6.75221 5.33278 5.44288 5.33278ZM5.22421 1.33278C4.83954 1.37545 4.61021 1.92145 4.67954 2.63011C4.69886 3.1062 4.89524 3.55792 5.23021 3.89678C5.29367 3.95912 5.378 3.9957 5.46688 3.99945C5.70088 3.97345 6.07754 3.37211 5.98888 2.46611C5.76088 1.22211 5.24088 1.33278 5.22421 1.33611V1.33278ZM2.10954 9.33278C1.72337 9.32674 1.35128 9.18676 1.05688 8.93678C0.442784 8.37359 0.0707519 7.5944 0.0188767 6.76278C-0.143123 5.10078 0.763543 4.12011 1.74288 4.01078C1.97883 3.98492 2.21758 4.00665 2.44499 4.07466C2.6724 4.14268 2.88387 4.25561 3.06688 4.40678C3.33966 4.65267 3.56114 4.95007 3.71857 5.28186C3.876 5.61366 3.96628 5.9733 3.98421 6.34011C4.13354 7.88945 3.38488 9.33278 2.10954 9.33278ZM1.89088 5.33278C1.50621 5.37545 1.27688 5.92145 1.34621 6.63011C1.36552 7.1062 1.5619 7.55792 1.89688 7.89678C1.96096 7.95819 2.04492 7.99461 2.13354 7.99945C2.36754 7.97345 2.74421 7.37211 2.65554 6.46611C2.47888 5.24745 1.90754 5.33278 1.89088 5.33611V5.33278ZM10.5575 5.33278C9.41888 5.34078 8.53487 3.88878 8.68621 2.33811C8.70414 1.9713 8.79442 1.61165 8.95185 1.27986C9.10928 0.948065 9.33076 0.650669 9.60354 0.40478C9.78622 0.254259 9.99719 0.141849 10.224 0.0741796C10.4508 0.00651046 10.6889 -0.0150467 10.9242 0.0107799C11.9035 0.120113 12.8102 1.10078 12.6482 2.76278C12.5965 3.59464 12.2245 4.3741 11.6102 4.93745C11.3157 5.18719 10.9436 5.32692 10.5575 5.33278ZM10.0135 2.46611C9.92488 3.36945 10.3015 3.97078 10.5355 3.99945C10.6227 3.99601 10.7059 3.96176 10.7702 3.90278C11.1052 3.56392 11.3016 3.1122 11.3209 2.63611C11.4609 0.88878 10.1335 1.00278 10.0135 2.46611ZM13.8909 9.33278C12.6495 9.33278 11.8682 7.88878 12.0195 6.33811C12.0375 5.9713 12.1278 5.61165 12.2852 5.27986C12.4426 4.94806 12.6641 4.65067 12.9369 4.40478C13.1193 4.25371 13.3302 4.14082 13.557 4.07279C13.7839 4.00477 14.0221 3.983 14.2575 4.00878C15.2369 4.11811 16.1435 5.09878 15.9815 6.76078C15.9298 7.59264 15.5578 8.3721 14.9435 8.93545C14.6493 9.18591 14.2772 9.32636 13.8909 9.33278ZM13.3469 6.46611C13.2582 7.36945 13.6349 7.97078 13.8689 7.99945C13.9558 7.99486 14.0386 7.96076 14.1035 7.90278C14.4385 7.56392 14.6349 7.1122 14.6542 6.63611C14.7209 5.92745 14.4942 5.38145 14.1095 5.33878C14.0929 5.33278 13.4102 5.27345 13.3469 6.46611ZM10.6669 15.9994C10.097 16.0108 9.53424 15.8715 9.03554 15.5954C8.71634 15.4273 8.36099 15.3394 8.00021 15.3394C7.63943 15.3394 7.28407 15.4273 6.96488 15.5954C4.95621 16.7214 2.61488 15.4841 2.66688 12.6661C2.66688 9.57611 5.67154 6.66611 8.00021 6.66611C10.3289 6.66611 13.3335 9.57545 13.3335 12.6661C13.3335 14.6288 12.2369 15.9994 10.6669 15.9994ZM8.00021 13.9994C8.56998 13.9882 9.13264 14.1274 9.63154 14.4028C11.1229 15.2148 12.0235 14.1141 12.0002 12.6661C12.0002 10.4128 9.65287 7.99945 8.00021 7.99945C6.34754 7.99945 4.00021 10.4128 4.00021 12.6661C3.97888 14.1121 4.87221 15.2148 6.36888 14.4028C6.86778 14.1274 7.43044 13.9882 8.00021 13.9994Z" fill="#64748B"/>
</svg>
