<svg width="19" height="18" viewBox="0 0 19 18" fill="none" xmlns="http://www.w3.org/2000/svg">
<path d="M17.75 8.25H10.25V0.75C10.25 0.551088 10.171 0.360322 10.0303 0.21967C9.88968 0.0790176 9.69891 0 9.5 0V0C9.30109 0 9.11032 0.0790176 8.96967 0.21967C8.82902 0.360322 8.75 0.551088 8.75 0.75V8.25H1.25C1.05109 8.25 0.860322 8.32902 0.71967 8.46967C0.579018 8.61032 0.5 8.80109 0.5 9H0.5C0.5 9.19891 0.579018 9.38968 0.71967 9.53033C0.860322 9.67098 1.05109 9.75 1.25 9.75H8.75V17.25C8.75 17.4489 8.82902 17.6397 8.96967 17.7803C9.11032 17.921 9.30109 18 9.5 18C9.69891 18 9.88968 17.921 10.0303 17.7803C10.171 17.6397 10.25 17.4489 10.25 17.25V9.75H17.75C17.9489 9.75 18.1397 9.67098 18.2803 9.53033C18.421 9.38968 18.5 9.19891 18.5 9C18.5 8.80109 18.421 8.61032 18.2803 8.46967C18.1397 8.32902 17.9489 8.25 17.75 8.25Z" fill="#3B82F6"/>
</svg>
