<svg width="19" height="18" viewBox="0 0 19 18" fill="none" xmlns="http://www.w3.org/2000/svg">
<g clip-path="url(#clip0_5522_38457)">
<path d="M18.5002 17.2492C18.5002 17.4481 18.4212 17.6389 18.2806 17.7795C18.1399 17.9202 17.9491 17.9992 17.7502 17.9992H1.25023C1.05132 17.9992 0.860554 17.9202 0.719902 17.7795C0.57925 17.6389 0.500232 17.4481 0.500232 17.2492C0.500232 17.0503 0.57925 16.8595 0.719902 16.7189C0.860554 16.5782 1.05132 16.4992 1.25023 16.4992H17.7502C17.9491 16.4992 18.1399 16.5782 18.2806 16.7189C18.4212 16.8595 18.5002 17.0503 18.5002 17.2492ZM0.718482 6.41319C0.556874 6.11343 0.482003 5.77457 0.502272 5.43463C0.522542 5.09468 0.637149 4.76712 0.833232 4.48869C1.15368 4.01853 1.58282 3.63261 2.08423 3.36369L7.70998 0.435687C8.26293 0.14816 8.877 -0.00195313 9.50023 -0.00195312C10.1235 -0.00195313 10.7375 0.14816 11.2905 0.435687L16.9155 3.36594C17.4169 3.63486 17.846 4.02078 18.1665 4.49094C18.3626 4.76937 18.4772 5.09693 18.4974 5.43688C18.5177 5.77682 18.4428 6.11568 18.2812 6.41544C18.1072 6.74456 17.8463 7.01964 17.5268 7.21073C17.2073 7.40182 16.8415 7.50159 16.4692 7.49919H16.2502V13.4992H17.0002C17.1991 13.4992 17.3899 13.5782 17.5306 13.7189C17.6712 13.8595 17.7502 14.0503 17.7502 14.2492C17.7502 14.4481 17.6712 14.6389 17.5306 14.7795C17.3899 14.9202 17.1991 14.9992 17.0002 14.9992H2.00023C1.80132 14.9992 1.61055 14.9202 1.4699 14.7795C1.32925 14.6389 1.25023 14.4481 1.25023 14.2492C1.25023 14.0503 1.32925 13.8595 1.4699 13.7189C1.61055 13.5782 1.80132 13.4992 2.00023 13.4992H2.75023V7.49919H2.53123C2.1586 7.50152 1.79249 7.40147 1.47282 7.20996C1.15316 7.01846 0.892226 6.74284 0.718482 6.41319ZM4.25023 13.4992H6.50023V7.49919H4.25023V13.4992ZM8.00023 7.49919V13.4992H11.0002V7.49919H8.00023ZM14.7502 7.49919H12.5002V13.4992H14.7502V7.49919ZM2.04748 5.71794C2.09454 5.8047 2.16457 5.87683 2.24989 5.92644C2.33522 5.97605 2.43255 6.00122 2.53123 5.99919H16.4692C16.5679 6.00122 16.6652 5.97605 16.7506 5.92644C16.8359 5.87683 16.9059 5.8047 16.953 5.71794C16.9873 5.66061 17.0038 5.59443 17.0006 5.52772C16.9974 5.461 16.9746 5.39672 16.935 5.34294C16.7533 5.07287 16.5091 4.85059 16.2232 4.69494L10.5982 1.76469C10.2592 1.58876 9.88291 1.49692 9.50098 1.49692C9.11905 1.49692 8.74273 1.58876 8.40373 1.76469L2.77873 4.69494C2.49297 4.85109 2.24888 5.07358 2.06698 5.34369C2.0273 5.39724 2.00428 5.46131 2.00082 5.52787C1.99735 5.59444 2.01358 5.66055 2.04748 5.71794Z" fill="#334155"/>
</g>
<defs>
<clipPath id="clip0_5522_38457">
<rect width="18" height="18" fill="white" transform="translate(0.5)"/>
</clipPath>
</defs>
</svg>
