<svg width="56" height="56" viewBox="0 0 56 56" fill="none" xmlns="http://www.w3.org/2000/svg">
<path d="M0.0747605 29.9671C-0.0437776 28.4058 -0.0213161 26.837 0.141884 25.2797C0.394491 22.6761 1.01403 20.1213 1.98209 17.6913C3.28632 14.4711 5.16538 11.5151 7.52752 8.96743C11.1262 5.03747 15.5392 2.45007 20.6614 1.03015C22.7405 0.446416 24.882 0.113757 27.0401 0.0392728C33.6317 -0.13573 40.0775 1.99643 45.2645 6.06759C50.4515 10.1388 54.0541 15.8934 55.4503 22.3378C55.7706 23.8503 55.9518 25.389 55.9917 26.9346C56.0736 30.4039 55.5497 33.8608 54.4433 37.1499C53.1997 40.8952 51.1271 44.3117 48.3799 47.1448C46.0542 49.5716 43.3572 51.613 40.3901 53.1922C38.4221 54.2291 36.3151 54.9772 34.1339 55.4133C32.2585 55.797 30.3481 55.9838 28.4338 55.9708C25.3298 55.9591 22.2828 55.5709 19.3174 54.618C15.3962 53.3619 11.8169 51.2197 8.85696 48.3575C6.95984 46.5377 5.12985 44.6406 3.27651 42.7727C2.98464 42.4808 2.7351 42.1627 2.47096 41.8518C2.39597 41.7621 2.33136 41.6642 2.27834 41.56C2.23986 41.502 2.21853 41.4344 2.21679 41.3649C2.21505 41.2954 2.23297 41.2268 2.2685 41.167C2.30403 41.1073 2.35571 41.0588 2.41761 41.0271C2.4795 40.9954 2.54909 40.9818 2.61835 40.9879C3.06025 40.9985 3.4868 41.1521 3.83398 41.4257C4.30242 41.754 4.75773 42.0999 5.2218 42.4341C6.5673 43.4002 7.88798 44.4042 9.26558 45.3221C11.5217 46.8281 14.0215 47.7738 16.6658 48.3473C18.4693 48.7317 20.3038 48.952 22.147 49.0054C23.2015 49.0435 24.2495 48.8257 25.2014 48.3706C25.8406 48.0656 26.2784 47.5709 26.3689 46.8412C26.452 46.2094 26.2229 45.6607 25.8508 45.1645C25.2481 44.3604 24.4951 43.7052 23.7435 43.0455C23.1788 42.5494 22.6038 42.0605 22.0755 41.5264C21.6264 41.0894 21.2756 40.5616 21.0466 39.9783C20.8177 39.395 20.7157 38.7695 20.7475 38.1437C20.7694 37.7158 20.9044 37.3014 21.1386 36.9427C21.1982 36.8491 21.2715 36.765 21.3561 36.6931C21.3828 36.6632 21.4159 36.6397 21.4529 36.6244C21.49 36.6092 21.53 36.6025 21.57 36.6049C21.6101 36.6072 21.649 36.6187 21.684 36.6382C21.719 36.6578 21.749 36.6851 21.772 36.7179C21.8237 36.7729 21.8697 36.833 21.9092 36.8974C22.8063 38.3619 24.0274 39.6011 25.4787 40.5195C26.4696 41.163 27.5071 41.7365 28.5301 42.3334C30.0799 43.2382 31.5641 44.2305 32.8877 45.4564C33.9173 46.3991 34.8173 47.4743 35.5641 48.6537C35.907 49.201 36.3988 49.3601 36.9782 49.0915C39.1332 48.1445 41.1424 46.8954 42.9453 45.3819C45.718 43.012 47.7611 40.1094 49.1533 36.7413C50.7084 32.9927 51.2304 28.8958 50.6651 24.877C50.1673 21.2185 48.7926 17.7346 46.6583 14.7218C44.5239 11.7091 41.6931 9.25679 38.4068 7.57376C34.0491 5.28564 29.1024 4.36558 24.2134 4.93385C19.3831 5.50737 15.1029 7.37238 11.3232 10.418C7.99159 13.1046 5.28162 16.3034 3.29694 20.1035C2.00437 22.5951 1.05076 25.2483 0.461467 27.9926C0.328669 28.6012 0.223604 29.217 0.10394 29.8285C0.0995619 29.8795 0.0864351 29.9233 0.0747605 29.9671Z" fill="white"/>
<path d="M5.01562 41.0036C5.38483 40.7278 5.74529 40.449 6.11158 40.1864C7.53004 39.1648 8.96017 38.1725 10.3684 37.1466C11.8847 36.0419 13.2666 34.7956 14.3772 33.2677C15.3789 31.8553 16.1658 30.3023 16.7121 28.6592C17.1868 27.2651 17.5623 25.8392 17.8358 24.3921C17.846 24.341 17.8621 24.2899 17.881 24.2111C17.9277 24.2783 17.9627 24.3279 17.9963 24.379C18.9668 25.8383 20.2699 26.8598 21.9759 27.2976C23.5738 27.7048 25.1076 27.483 26.4998 26.568C27.946 25.615 28.3648 24.0404 27.8862 22.5315C27.1331 20.1586 26.3407 17.7974 25.5629 15.4333C25.5315 15.3334 25.4869 15.2382 25.4301 15.1502C25.381 15.0661 25.3066 14.9997 25.2175 14.9604C25.1284 14.9211 25.0292 14.9109 24.9339 14.9313C24.8386 14.9531 24.7534 15.0062 24.6918 15.0821C24.6301 15.158 24.5957 15.2524 24.5939 15.3501C24.5825 15.5521 24.6007 15.7547 24.6479 15.9514C25.271 18.3082 25.9058 20.6621 26.5319 23.0174C26.8238 24.1207 26.4239 25.0167 25.4111 25.5493C24.6887 25.9106 23.8816 26.0685 23.0762 26.0061C21.8708 25.9507 20.9077 25.383 20.0627 24.5804C19.0966 23.6893 18.485 22.4792 18.3407 21.1728C18.2967 20.6622 18.2928 20.1489 18.329 19.6376C18.3619 18.6524 18.5313 17.6766 18.8325 16.7379C19.3097 15.2888 20.1649 14.082 21.1937 12.9787C22.3436 11.7456 23.6993 10.8277 25.3134 10.3417C28.7428 9.30852 31.8803 9.91999 34.7377 12.0696C35.6629 12.7671 36.3998 13.65 37.1499 14.5212C37.4922 14.9262 37.867 15.3025 38.2707 15.6464C38.8705 16.1469 39.6089 16.3556 40.3692 16.43C41.2039 16.5098 42.0416 16.5584 42.8822 16.5759C44.2773 16.5993 45.2419 17.4253 45.3907 18.8175C45.5207 20.0102 45.3734 21.2168 44.9602 22.3432C44.502 23.6099 43.5753 24.4767 42.4093 25.0838C41.3149 25.6544 40.1926 26.1696 39.0821 26.708C38.1233 27.1736 37.1602 27.6289 36.2072 28.1075C35.2543 28.5862 34.4808 29.275 34.0649 30.2965C33.8221 30.9184 33.7383 31.591 33.8212 32.2535C33.8898 32.9189 33.954 33.5873 34.0095 34.2542C34.081 35.1298 34.1554 36.0054 34.205 36.881C34.2503 37.5785 34.2838 38.2776 34.2999 38.9766C34.3261 40.1951 34.3495 41.4151 34.3495 42.6336C34.3495 43.5355 34.3101 44.4388 34.2867 45.3801C34.1 45.1991 33.938 45.0401 33.7716 44.8839C32.359 43.5428 30.7639 42.4512 29.0872 41.4735C28.0948 40.8898 27.0894 40.3411 26.1248 39.7223C24.7527 38.8657 23.5979 37.7029 22.7508 36.325C22.4706 35.8609 22.0678 35.5647 21.4885 35.5851C21.2984 35.5932 21.1122 35.6419 20.9425 35.728C20.7729 35.8141 20.6236 35.9355 20.5049 36.0842C19.9846 36.6938 19.704 37.4719 19.7154 38.2732C19.6994 39.0101 19.835 39.7425 20.1139 40.4249C20.3928 41.1072 20.809 41.7249 21.3367 42.2396C21.9949 42.8993 22.7289 43.483 23.4075 44.1222C23.9372 44.6212 24.4422 45.1437 24.9398 45.6778C25.0878 45.851 25.2048 46.0485 25.2856 46.2615C25.3656 46.4331 25.3833 46.6273 25.3356 46.8105C25.2879 46.9938 25.1779 47.1547 25.0244 47.2655C24.7077 47.5326 24.3152 47.6333 23.9314 47.7515C23.0689 48.0171 22.1802 48.0259 21.3046 47.9471C20.5268 47.877 19.7475 47.8143 18.9697 47.7092C18.2254 47.607 17.4885 47.4567 16.7515 47.321C16.6745 47.2955 16.6017 47.2586 16.5355 47.2115C16.2772 47.0585 16.0096 46.9215 15.7344 46.8015C15.5824 46.7668 15.4234 46.7816 15.2805 46.8438C15.1815 46.8839 15.0715 46.8881 14.9697 46.8555C12.8275 46.2129 10.8059 45.2213 8.98644 43.9208C7.67305 42.978 6.37572 42.0236 5.07254 41.0634C5.05227 41.0447 5.03326 41.0248 5.01562 41.0036Z" fill="white"/>
</svg>
