<svg width="130" height="48" viewBox="0 0 130 48" fill="none" xmlns="http://www.w3.org/2000/svg">
<path d="M0 3.9385C0 2.89394 0.414951 1.89218 1.15356 1.15356C1.89218 0.414951 2.89394 0 3.9385 0C4.98306 0 5.98484 0.414951 6.72346 1.15356C7.46207 1.89218 7.87702 2.89394 7.87702 3.9385V39.9795H21.9627C22.4418 39.9795 22.9161 40.0748 23.3579 40.2601C23.7997 40.4454 24.2001 40.7168 24.5358 41.0586C24.8715 41.4003 25.1358 41.8056 25.3131 42.2506C25.4905 42.6956 25.5773 43.1715 25.5687 43.6505C25.5751 44.615 25.1995 45.5429 24.5237 46.2311C23.848 46.9194 22.9272 47.3121 21.9627 47.3234H3.94222C2.90185 47.3099 1.9079 46.8906 1.17218 46.1549C0.436471 45.4192 0.0171947 44.4252 0.0037192 43.3849L0 3.9385Z" fill="white"/>
<path d="M25.376 16.3569C25.376 15.3833 25.7627 14.4496 26.4512 13.7611C27.1396 13.0727 28.0734 12.6859 29.047 12.6859C30.0206 12.6859 30.9543 13.0727 31.6427 13.7611C32.3312 14.4496 32.718 15.3833 32.718 16.3569V32.646C32.718 38.2546 36.1232 41.1918 40.3962 41.1918C44.6691 41.1918 48.0725 38.2546 48.0725 32.646V16.3569C48.0658 15.8728 48.1562 15.3922 48.3384 14.9437C48.5206 14.4951 48.7909 14.0877 49.1333 13.7454C49.4758 13.4031 49.8834 13.133 50.332 12.9511C50.7807 12.7691 51.2613 12.6789 51.7454 12.6859C52.2279 12.6845 52.7059 12.7784 53.1519 12.9623C53.598 13.1463 54.0033 13.4167 54.3444 13.7578C54.6856 14.099 54.956 14.5043 55.1399 14.9503C55.3239 15.3964 55.4178 15.8744 55.4164 16.3569V32.3785C55.4164 41.9256 48.8082 48.0006 40.3962 48.0006C31.9841 48.0006 25.376 41.9256 25.376 32.3785V16.3569Z" fill="white"/>
<path d="M60.564 28.1725C60.564 18.6272 67.1741 12.6191 75.5843 12.6191C83.9945 12.6191 90.6063 18.6272 90.6063 28.1725V44.1959C90.6103 45.1779 90.2254 46.1214 89.5358 46.8204C88.8462 47.5194 87.9079 47.917 86.926 47.9264C86.4384 47.9259 85.9557 47.8285 85.5062 47.6396C85.0566 47.4508 84.6491 47.1744 84.3075 46.8265C83.9658 46.4786 83.6968 46.0662 83.5161 45.6133C83.3354 45.1604 83.2466 44.676 83.255 44.1885V27.8994C83.255 22.3577 79.8497 19.4205 75.5768 19.4205C71.3039 19.4205 67.9004 22.3577 67.9004 27.8994V44.1885C67.9114 44.6777 67.8246 45.1641 67.645 45.6192C67.4654 46.0743 67.1967 46.489 66.8547 46.8388C66.5126 47.1887 66.1041 47.4666 65.6531 47.6564C65.2022 47.8462 64.7178 47.9439 64.2285 47.9439C63.7393 47.9439 63.2549 47.8462 62.8039 47.6564C62.353 47.4666 61.9444 47.1887 61.6024 46.8388C61.2603 46.489 60.9916 46.0743 60.812 45.6192C60.6325 45.1641 60.5456 44.6777 60.5566 44.1885L60.564 28.1725Z" fill="white"/>
<path d="M122.31 43.8607C119.25 46.5552 115.305 48.0287 111.228 47.9998C101.614 47.9998 94.3369 40.1971 94.3369 30.3082C94.3369 20.4192 101.621 12.6276 111.228 12.6276C115.318 12.5911 119.273 14.0922 122.31 16.8336V16.3655C122.31 15.3919 122.696 14.4581 123.385 13.7697C124.073 13.0812 125.007 12.6945 125.981 12.6945C126.954 12.6945 127.888 13.0812 128.576 13.7697C129.265 14.4581 129.652 15.3919 129.652 16.3655V44.2044C129.652 44.6865 129.557 45.1638 129.372 45.6092C129.188 46.0546 128.917 46.4593 128.576 46.8002C128.236 47.141 127.831 47.4114 127.385 47.5959C126.94 47.7804 126.463 47.8754 125.981 47.8754C125.499 47.8754 125.021 47.7804 124.576 47.5959C124.13 47.4114 123.726 47.141 123.385 46.8002C123.044 46.4593 122.774 46.0546 122.589 45.6092C122.405 45.1638 122.31 44.6865 122.31 44.2044V43.8607ZM122.31 30.3082V29.8418C122.042 23.8969 117.635 19.4271 112.029 19.4271C106.286 19.4271 101.748 24.1013 101.748 30.3082C101.748 36.515 106.286 41.1911 112.029 41.1911C117.771 41.1911 122.31 36.5169 122.31 30.3082Z" fill="white"/>
</svg>
