<svg width="68" height="18" viewBox="0 0 68 18" fill="none" xmlns="http://www.w3.org/2000/svg">
<g clip-path="url(#clip0_5522_38399)">
<path d="M25.388 3.68164H21.6576C21.4024 3.68164 21.1853 3.8671 21.1455 4.1191L19.6367 13.6847C19.6067 13.8735 19.7529 14.0436 19.9444 14.0436H21.7253C21.9805 14.0436 22.1976 13.8582 22.2375 13.6056L22.6444 11.0256C22.6836 10.7731 22.9013 10.5876 23.156 10.5876H24.3369C26.7942 10.5876 28.2124 9.39855 28.5827 7.04219C28.7496 6.01128 28.5898 5.20128 28.1071 4.634C27.5769 4.0111 26.6365 3.68164 25.388 3.68164ZM25.8184 7.17528C25.6144 8.51382 24.5916 8.51382 23.6027 8.51382H23.0398L23.4347 6.014C23.4582 5.86291 23.5891 5.75164 23.7418 5.75164H23.9998C24.6735 5.75164 25.3089 5.75164 25.6373 6.13564C25.8331 6.36473 25.8931 6.7051 25.8184 7.17528Z" fill="#253B80"/>
<path d="M36.5379 7.13089H34.7516C34.5994 7.13089 34.4679 7.24216 34.4445 7.39325L34.3654 7.89289L34.2405 7.7118C33.8538 7.15053 32.9914 6.96289 32.1307 6.96289C30.1567 6.96289 28.4707 8.45798 28.1423 10.5553C27.9716 11.6014 28.2143 12.6018 28.8078 13.2994C29.3521 13.9409 30.131 14.2082 31.0578 14.2082C32.6483 14.2082 33.5303 13.1854 33.5303 13.1854L33.4507 13.6818C33.4207 13.8716 33.5669 14.0418 33.7572 14.0418H35.3663C35.6221 14.0418 35.8381 13.8563 35.8785 13.6038L36.8439 7.4898C36.8745 7.30162 36.7289 7.13089 36.5379 7.13089ZM34.0479 10.6076C33.8756 11.6282 33.0656 12.3133 32.0325 12.3133C31.5138 12.3133 31.0992 12.1469 30.833 11.8316C30.569 11.5185 30.4687 11.0729 30.5527 10.5765C30.7136 9.56471 31.5372 8.85725 32.5545 8.85725C33.0618 8.85725 33.4741 9.0258 33.7458 9.3438C34.0179 9.66507 34.1259 10.1134 34.0479 10.6076Z" fill="#253B80"/>
<path d="M46.0524 7.13086H44.2573C44.086 7.13086 43.9251 7.21595 43.828 7.35831L41.3522 11.0052L40.3027 7.50068C40.2367 7.28141 40.0344 7.13086 39.8053 7.13086H38.0413C37.8269 7.13086 37.678 7.34031 37.7462 7.54213L39.7235 13.3447L37.8646 15.9689C37.7184 16.1756 37.8657 16.4598 38.1182 16.4598H39.9111C40.0813 16.4598 40.2406 16.3769 40.3371 16.2372L46.3077 7.61904C46.4506 7.41286 46.3038 7.13086 46.0524 7.13086Z" fill="#253B80"/>
<path d="M51.9954 3.68164H48.2645C48.0098 3.68164 47.7927 3.8671 47.7529 4.1191L46.2442 13.6847C46.2142 13.8735 46.3603 14.0436 46.5507 14.0436H48.4652C48.6431 14.0436 48.7952 13.9138 48.8231 13.7371L49.2512 11.0256C49.2905 10.7731 49.5082 10.5876 49.7629 10.5876H50.9432C53.4011 10.5876 54.8187 9.39855 55.1896 7.04219C55.3571 6.01128 55.1962 5.20128 54.7134 4.634C54.1838 4.0111 53.244 3.68164 51.9954 3.68164ZM52.4258 7.17528C52.2223 8.51382 51.1996 8.51382 50.2102 8.51382H49.6478L50.0432 6.014C50.0667 5.86291 50.1965 5.75164 50.3498 5.75164H50.6078C51.2809 5.75164 51.9169 5.75164 52.2452 6.13564C52.4411 6.36473 52.5005 6.7051 52.4258 7.17528Z" fill="#179BD7"/>
<path d="M63.146 7.13089H61.3607C61.2074 7.13089 61.0771 7.24216 61.0541 7.39325L60.9751 7.89289L60.8496 7.7118C60.4629 7.15053 59.6011 6.96289 58.7403 6.96289C56.7663 6.96289 55.0809 8.45798 54.7525 10.5553C54.5823 11.6014 54.824 12.6018 55.4174 13.2994C55.9629 13.9409 56.7407 14.2082 57.6674 14.2082C59.258 14.2082 60.14 13.1854 60.14 13.1854L60.0603 13.6818C60.0303 13.8716 60.1765 14.0418 60.368 14.0418H61.9765C62.2312 14.0418 62.4483 13.8563 62.4881 13.6038L63.4541 7.4898C63.4836 7.30162 63.3374 7.13089 63.146 7.13089ZM60.656 10.6076C60.4847 11.6282 59.6736 12.3133 58.6405 12.3133C58.1229 12.3133 57.7072 12.1469 57.4411 11.8316C57.1771 11.5185 57.0778 11.0729 57.1607 10.5765C57.3227 9.56471 58.1452 8.85725 59.1625 8.85725C59.6698 8.85725 60.0821 9.0258 60.3538 9.3438C60.6271 9.66507 60.7351 10.1134 60.656 10.6076Z" fill="#179BD7"/>
<path d="M65.2518 3.94455L63.7207 13.6853C63.6907 13.874 63.8369 14.0442 64.0273 14.0442H65.5665C65.8223 14.0442 66.0394 13.8587 66.0787 13.6062L67.5885 4.0411C67.6185 3.85237 67.4723 3.68164 67.282 3.68164H65.5583C65.4062 3.68219 65.2753 3.79346 65.2518 3.94455Z" fill="#179BD7"/>
<path d="M4.14529 15.9022L4.43056 14.0902L3.79511 14.0755H0.760742L2.86947 0.704776C2.87601 0.664412 2.89729 0.626776 2.92838 0.600048C2.95947 0.573321 2.99929 0.558594 3.04074 0.558594H8.15711C9.85565 0.558594 11.0278 0.912048 11.6398 1.60968C11.9267 1.93696 12.1095 2.27896 12.1978 2.65532C12.2906 3.05023 12.2922 3.52205 12.2016 4.0975L12.1951 4.1395V4.50823L12.482 4.67078C12.7236 4.79896 12.9156 4.94568 13.0629 5.11368C13.3084 5.3935 13.4671 5.74914 13.5342 6.17078C13.6035 6.60441 13.5806 7.12041 13.4671 7.70459C13.3362 8.37659 13.1246 8.96187 12.8387 9.44078C12.5758 9.88205 12.2409 10.248 11.8433 10.5317C11.4636 10.8011 11.0126 11.0057 10.5026 11.1366C10.0084 11.2653 9.44492 11.3302 8.82692 11.3302H8.42874C8.14401 11.3302 7.86747 11.4328 7.65038 11.6166C7.43274 11.8042 7.28874 12.0606 7.24456 12.341L7.21456 12.504L6.71056 15.6977L6.68765 15.815C6.68165 15.852 6.67129 15.8706 6.65601 15.8831C6.64238 15.8946 6.62274 15.9022 6.60365 15.9022H4.14529Z" fill="#253B80"/>
<path d="M12.7528 4.18164C12.7375 4.27928 12.7201 4.3791 12.7005 4.48164C12.0257 7.94582 9.71737 9.14255 6.76919 9.14255H5.2681C4.90755 9.14255 4.60373 9.40437 4.54755 9.76L3.779 14.6342L3.56137 16.0158C3.52482 16.2493 3.70482 16.4598 3.94046 16.4598H6.60282C6.91809 16.4598 7.18591 16.2307 7.23555 15.9198L7.26173 15.7845L7.763 12.6035L7.79519 12.4289C7.84428 12.1169 8.11264 11.8878 8.42791 11.8878H8.82609C11.4055 11.8878 13.4248 10.8406 14.015 7.81C14.2615 6.544 14.1339 5.48691 13.4815 4.74346C13.2841 4.51928 13.0392 4.33328 12.7528 4.18164Z" fill="#179BD7"/>
<path d="M12.0473 3.90039C11.9442 3.87039 11.8379 3.84311 11.7288 3.81857C11.6191 3.79457 11.5068 3.77329 11.3911 3.75475C10.9864 3.68929 10.5429 3.6582 10.0679 3.6582H6.05767C5.95894 3.6582 5.86512 3.68057 5.78112 3.72093C5.59622 3.80984 5.45876 3.98493 5.42549 4.19929L4.5724 9.60257L4.54785 9.7602C4.60403 9.40457 4.90785 9.14275 5.2684 9.14275H6.76949C9.71767 9.14275 12.026 7.94548 12.7008 4.48184C12.7209 4.37929 12.7379 4.27948 12.7531 4.18184C12.5824 4.09129 12.3975 4.01384 12.1984 3.94784C12.1493 3.93148 12.0986 3.91566 12.0473 3.90039Z" fill="#222D65"/>
<path d="M5.42563 4.19945C5.45891 3.98509 5.59636 3.81 5.78127 3.72164C5.86582 3.68127 5.95909 3.65891 6.05782 3.65891H10.068C10.5431 3.65891 10.9865 3.69 11.3913 3.75545C11.5069 3.774 11.6193 3.79527 11.7289 3.81927C11.838 3.84382 11.9444 3.87109 12.0475 3.90109C12.0987 3.91636 12.1495 3.93218 12.1991 3.948C12.3982 4.014 12.5831 4.092 12.7538 4.182C12.9545 2.90182 12.7522 2.03018 12.06 1.24091C11.2969 0.372 9.91963 0 8.15727 0H3.04091C2.68091 0 2.37382 0.261818 2.31818 0.618L0.187089 14.1262C0.145089 14.3935 0.351271 14.6345 0.620725 14.6345H3.77945L4.57254 9.60273L5.42563 4.19945Z" fill="#253B80"/>
</g>
<defs>
<clipPath id="clip0_5522_38399">
<rect width="67.6364" height="18" fill="white" transform="translate(0.181641)"/>
</clipPath>
</defs>
</svg>
