<svg width="46" height="18" viewBox="0 0 46 18" fill="none" xmlns="http://www.w3.org/2000/svg">
<path d="M29.4133 17.3243V13.9493C29.8633 14.2868 30.4258 14.7368 31.5508 14.7368C33.6883 14.7368 35.6008 13.0493 35.6008 9.22425C35.6008 5.73673 33.6883 3.82422 31.5508 3.82422C30.4258 3.82422 29.6383 4.38672 29.1883 4.83673L29.0758 4.16172H26.4883V17.9993L29.4133 17.3243ZM30.7633 6.41174C31.8883 6.41174 32.5633 7.64924 32.5633 9.22425C32.5633 10.9118 31.8883 12.0368 30.7633 12.0368C30.0883 12.0368 29.6383 11.8118 29.3008 11.4743V6.97424C29.7508 6.74924 30.0883 6.41174 30.7633 6.41174Z" fill="#635BFF"/>
<path d="M41.3377 14.8485C42.8002 14.8485 43.8128 14.511 44.7128 14.061V11.586C43.9253 12.036 43.0252 12.261 41.7877 12.261C40.5502 12.261 39.6502 11.811 39.4252 10.3485H45.2753C45.2753 10.1235 45.2753 9.56097 45.2753 9.22347C45.2753 6.07345 43.8128 3.71094 41.0002 3.71094C38.1877 3.71094 36.3877 6.18595 36.3877 9.22347C36.3877 12.936 38.4127 14.8485 41.3377 14.8485ZM41.0002 6.18595C41.6752 6.18595 42.4627 6.74846 42.4627 8.09846H39.3127C39.4252 6.86096 40.2127 6.18595 41.0002 6.18595Z" fill="#635BFF"/>
<path d="M18.7258 7.3115C19.4008 6.299 20.6383 6.524 20.9758 6.6365V3.82398C20.5258 3.71148 19.1758 3.37398 18.6133 4.72399L18.3883 3.82398H15.8008V14.399H18.7258V7.3115Z" fill="#635BFF"/>
<path d="M5.22561 11.4735C5.22561 12.036 4.77561 12.1485 4.10061 12.1485C3.0881 12.1485 1.85059 11.6985 0.838085 11.136V14.061C1.96309 14.511 3.0881 14.736 4.10061 14.736C6.57562 14.736 8.26313 13.4985 8.26313 11.361C8.26313 7.76096 3.7631 8.43597 3.7631 7.08596C3.7631 6.63595 4.10061 6.41095 4.77561 6.41095C5.67562 6.41095 6.80062 6.63595 7.70063 7.19846V4.27344C6.68812 3.82344 5.78812 3.71094 4.77561 3.71094C2.41309 3.71094 0.725586 4.94844 0.725586 7.08596C0.725586 10.5735 5.22561 10.011 5.22561 11.4735Z" fill="#635BFF"/>
<path d="M12.4252 14.8516C13.3252 14.8516 14.1127 14.6266 14.5627 14.4016V11.9266C14.2252 12.0391 12.3127 12.6016 12.3127 10.8016V6.52659H14.5627V3.93908H12.3127V1.35156L9.3877 2.02657V11.7016C9.3877 13.5016 10.6252 14.8516 12.4252 14.8516Z" fill="#635BFF"/>
<path d="M21.9883 0.675004V3.03752L25.0258 2.47501V0L21.9883 0.675004Z" fill="#635BFF"/>
<path d="M24.9133 3.9375H21.9883V14.4001H24.9133V3.9375Z" fill="#635BFF"/>
</svg>
