<svg width="18" height="18" viewBox="0 0 18 18" fill="none" xmlns="http://www.w3.org/2000/svg">
<rect width="18" height="18" rx="9" fill="#DBEAFE"/>
<g clip-path="url(#clip0_6337_45538)">
<path d="M6.80512 14.5913L7.01188 13.2712H6.54667H4.33594L5.8747 3.51378C5.87634 3.48641 5.88602 3.46012 5.90254 3.43823C5.91478 3.4253 5.92959 3.41507 5.94603 3.40822C5.96247 3.40138 5.98016 3.39805 5.99797 3.39847H9.72759C10.9681 3.39847 11.819 3.66487 12.2644 4.1937C12.4579 4.41147 12.5945 4.67374 12.662 4.95712C12.7286 5.30385 12.7286 5.66009 12.662 6.00682V6.03863V6.30901L12.8727 6.42432C13.0327 6.50699 13.1767 6.61738 13.2982 6.75036C13.4837 6.96785 13.6025 7.23435 13.6401 7.51776C13.6878 7.89152 13.6717 8.27067 13.5924 8.63903C13.5133 9.08411 13.3572 9.51198 13.1312 9.90344C12.9486 10.2165 12.702 10.4874 12.4075 10.6987C12.1109 10.9038 11.7795 11.0533 11.4294 11.14C11.0298 11.2366 10.6198 11.2834 10.2087 11.2792H9.91844C9.70997 11.2801 9.50855 11.3547 9.34985 11.4899C9.20658 11.6233 9.11268 11.8013 9.08345 11.9949L9.0596 12.1142L8.68584 14.4442V14.5277C8.68561 14.5375 8.68337 14.5471 8.67927 14.556C8.67517 14.5649 8.66928 14.5729 8.66198 14.5794C8.64903 14.5834 8.63517 14.5834 8.62222 14.5794L6.80512 14.5913Z" fill="#253B80"/>
<path d="M13.0789 6.05078C13.0789 6.12235 13.0551 6.19392 13.0392 6.26947C12.5501 8.79432 10.8642 9.6651 8.71709 9.6651H7.62365C7.49615 9.66365 7.37241 9.70832 7.27524 9.79088C7.17806 9.87344 7.11399 9.98833 7.09483 10.1144L6.53817 13.6691L6.37912 14.675C6.37216 14.715 6.37404 14.7561 6.38462 14.7953C6.3952 14.8345 6.41422 14.8709 6.44037 14.902C6.46651 14.933 6.49913 14.958 6.53594 14.9751C6.57276 14.9922 6.61287 15.0011 6.65347 15.0011H8.59383C8.70567 15.0013 8.81384 14.9612 8.89855 14.8882C8.98325 14.8152 9.03882 14.7141 9.05506 14.6035L9.07495 14.5041L9.44075 12.186L9.46461 12.0587C9.48086 11.9481 9.53642 11.847 9.62113 11.774C9.70583 11.701 9.81401 11.6609 9.92584 11.6611H10.2161C12.0968 11.6611 13.568 10.8977 13.9974 8.69094C14.1763 7.76848 14.0849 6.9971 13.5998 6.45635C13.4514 6.29151 13.2751 6.1542 13.0789 6.05078Z" fill="#179BD7"/>
<path d="M12.5625 5.84322L12.3319 5.78358L12.0854 5.73586C11.7657 5.68766 11.4426 5.66505 11.1192 5.66827H8.19675C8.12807 5.66812 8.06021 5.68305 7.99794 5.71201C7.92985 5.74571 7.87063 5.79493 7.82505 5.8557C7.77947 5.91648 7.7488 5.98711 7.73551 6.06191L7.11523 9.99829V10.1136C7.1343 9.98822 7.1978 9.87386 7.29414 9.79139C7.39049 9.70891 7.51326 9.66381 7.64009 9.66429H8.73352C10.8806 9.66429 12.5665 8.79352 13.0556 6.26867C13.0556 6.19312 13.0834 6.12155 13.0954 6.04998C12.9684 5.98086 12.8353 5.92362 12.6977 5.879L12.5625 5.84322Z" fill="#222D65"/>
<path d="M7.73546 6.06163C7.74845 5.98672 7.779 5.91596 7.82462 5.85514C7.87023 5.79432 7.92961 5.74517 7.99789 5.71173C8.06016 5.68278 8.12802 5.66785 8.1967 5.668H11.1192C11.4426 5.66599 11.7657 5.68993 12.0854 5.73957L12.3319 5.7833L12.5625 5.84295L12.6738 5.87873C12.8114 5.92335 12.9445 5.98058 13.0714 6.04971C13.2186 5.11531 13.0714 4.47913 12.5665 3.90656C12.0178 3.27038 11.0118 3 9.72751 3H5.99789C5.87106 2.99952 5.74829 3.04462 5.65195 3.1271C5.5556 3.20957 5.49211 3.32393 5.47304 3.44931L3.91439 13.2982C3.90683 13.3441 3.90942 13.3911 3.92198 13.4359C3.93455 13.4806 3.95677 13.5221 3.9871 13.5574C4.01743 13.5926 4.05512 13.6208 4.09751 13.6399C4.13991 13.659 4.18598 13.6686 4.23248 13.668H6.53864L7.11518 9.99801L7.73546 6.06163Z" fill="#253B80"/>
</g>
<defs>
<clipPath id="clip0_6337_45538">
<rect width="10.171" height="12" fill="white" transform="translate(3.91406 3)"/>
</clipPath>
</defs>
</svg>
