<svg width="19" height="18" viewBox="0 0 19 18" fill="none" xmlns="http://www.w3.org/2000/svg">
<rect x="0.0244141" width="18" height="18" rx="9" fill="#F0F9FF"/>
<g clip-path="url(#clip0_6337_45508)">
<path d="M14.0241 13.584C14.0241 13.6945 13.9802 13.8005 13.9021 13.8786C13.8239 13.9567 13.7179 14.0006 13.6074 14.0006H4.44078C4.33027 14.0006 4.22429 13.9567 4.14615 13.8786C4.06801 13.8005 4.02411 13.6945 4.02411 13.584C4.02411 13.4735 4.06801 13.3675 4.14615 13.2893C4.22429 13.2112 4.33027 13.1673 4.44078 13.1673H13.6074C13.7179 13.1673 13.8239 13.2112 13.9021 13.2893C13.9802 13.3675 14.0241 13.4735 14.0241 13.584ZM4.14536 7.56397C4.05558 7.39744 4.01398 7.20918 4.02524 7.02032C4.0365 6.83146 4.10017 6.64948 4.20911 6.4948C4.38713 6.2336 4.62554 6.0192 4.90411 5.8698L8.02953 4.24313C8.33672 4.0834 8.67787 4 9.02411 4C9.37035 4 9.7115 4.0834 10.0187 4.24313L13.1437 5.87105C13.4223 6.02045 13.6607 6.23485 13.8387 6.49605C13.9476 6.65073 14.0113 6.83271 14.0226 7.02157C14.0338 7.21043 13.9922 7.39869 13.9024 7.56522C13.8058 7.74806 13.6608 7.90088 13.4833 8.00705C13.3058 8.11321 13.1026 8.16864 12.8958 8.1673H12.7741V11.5006H13.1908C13.3013 11.5006 13.4073 11.5445 13.4854 11.6227C13.5635 11.7008 13.6074 11.8068 13.6074 11.9173C13.6074 12.0278 13.5635 12.1338 13.4854 12.2119C13.4073 12.2901 13.3013 12.334 13.1908 12.334H4.85744C4.74694 12.334 4.64095 12.2901 4.56281 12.2119C4.48467 12.1338 4.44078 12.0278 4.44078 11.9173C4.44078 11.8068 4.48467 11.7008 4.56281 11.6227C4.64095 11.5445 4.74694 11.5006 4.85744 11.5006H5.27411V8.1673H5.15244C4.94543 8.16859 4.74203 8.11301 4.56444 8.00662C4.38685 7.90023 4.24188 7.74711 4.14536 7.56397ZM6.10744 11.5006H7.35744V8.1673H6.10744V11.5006ZM8.19078 8.1673V11.5006H9.85744V8.1673H8.19078ZM11.9408 8.1673H10.6908V11.5006H11.9408V8.1673ZM4.88369 7.17772C4.90984 7.22592 4.94874 7.26599 4.99614 7.29355C5.04355 7.32111 5.09762 7.33509 5.15244 7.33397H12.8958C12.9506 7.33509 13.0047 7.32111 13.0521 7.29355C13.0995 7.26599 13.1384 7.22592 13.1645 7.17772C13.1836 7.14587 13.1928 7.1091 13.191 7.07204C13.1892 7.03497 13.1765 6.99926 13.1545 6.96938C13.0536 6.81935 12.9179 6.69586 12.7591 6.60938L9.63411 4.98147C9.44578 4.88373 9.23671 4.83271 9.02453 4.83271C8.81234 4.83271 8.60327 4.88373 8.41494 4.98147L5.28994 6.60938C5.13119 6.69614 4.99558 6.81974 4.89453 6.9698C4.87248 6.99955 4.85969 7.03515 4.85777 7.07213C4.85584 7.10911 4.86486 7.14583 4.88369 7.17772Z" fill="#3B82F6"/>
</g>
<defs>
<clipPath id="clip0_6337_45508">
<rect width="10" height="10" fill="white" transform="translate(4.02441 4)"/>
</clipPath>
</defs>
</svg>
