<svg width="145" height="148" viewBox="0 0 145 148" fill="none" xmlns="http://www.w3.org/2000/svg">
<rect x="44" y="45.5" width="18" height="18" rx="9" fill="#635BFF"/>
<g filter="url(#filter0_d_6337_45525)">
<path d="M53.8168 53.3119C52.9133 52.9778 52.4182 52.7178 52.4182 52.3094C52.4182 51.9628 52.7029 51.7649 53.2104 51.7649C54.1386 51.7649 55.0915 52.1238 55.7475 52.4455L56.1188 50.1559C55.5989 49.9084 54.5346 49.5 53.0618 49.5C52.0222 49.5 51.1559 49.7722 50.5371 50.2797C49.8934 50.8118 49.5593 51.5792 49.5593 52.5074C49.5593 54.1906 50.5866 54.9084 52.2574 55.5149C53.3341 55.8986 53.693 56.1709 53.693 56.5916C53.693 57 53.3464 57.2351 52.7153 57.2351C51.9355 57.2351 50.6485 56.8515 49.8068 56.3565L49.4355 58.6708C50.1533 59.0793 51.49 59.5 52.8762 59.5C53.9777 59.5 54.8935 59.2401 55.5123 58.7451C56.2054 58.2005 56.5643 57.3961 56.5643 56.3565C56.5643 54.6361 55.5123 53.9183 53.8167 53.3119L53.8168 53.3119Z" fill="white"/>
</g>
<defs>
<filter id="filter0_d_6337_45525" x="0.607422" y="0.671875" width="143.848" height="146.719" filterUnits="userSpaceOnUse" color-interpolation-filters="sRGB">
<feFlood flood-opacity="0" result="BackgroundImageFix"/>
<feColorMatrix in="SourceAlpha" type="matrix" values="0 0 0 0 0 0 0 0 0 0 0 0 0 0 0 0 0 0 127 0" result="hardAlpha"/>
<feOffset dx="19.5312" dy="19.5312"/>
<feGaussianBlur stdDeviation="34.1797"/>
<feColorMatrix type="matrix" values="0 0 0 0 0 0 0 0 0 0 0 0 0 0 0 0 0 0 0.185125 0"/>
<feBlend mode="normal" in2="BackgroundImageFix" result="effect1_dropShadow_6337_45525"/>
<feBlend mode="normal" in="SourceGraphic" in2="effect1_dropShadow_6337_45525" result="shape"/>
</filter>
</defs>
</svg>
